<svg width="134" height="48" viewBox="0 0 134 48" fill="none" xmlns="http://www.w3.org/2000/svg">
<g clip-path="url(#clip0_177_830)">
<path d="M15.385 6H0.75V41L15.385 6Z" fill="#FA0C00"/>
<path d="M25.6821 6H40.298V41L25.6821 6Z" fill="#FA0C00"/>
<path d="M20.5337 18.8999L29.8486 41.0001H23.7372L20.9532 33.9639H14.1362L20.5337 18.8999Z" fill="#FA0C00"/>
<path d="M64.1736 28.2579L65.8993 33.2061C65.9565 33.3301 66.0423 33.3873 66.1948 33.3873H69.5127C69.6939 33.3873 69.7225 33.3015 69.6939 33.1203L62.8388 14.0806C62.8102 13.928 62.7816 13.8994 62.629 13.8994H58.5103C58.3959 13.8994 58.3291 13.9852 58.3291 14.1092C58.2719 15.1103 58.1861 15.4154 58.0622 15.7109L51.9507 33.0917C51.9221 33.3015 51.9889 33.3873 52.1605 33.3873H55.1256C55.3068 33.3873 55.3926 33.3301 55.4593 33.1489L57.0897 28.2579H64.1736ZM58.0336 25.0258C58.9298 22.3181 60.112 18.8477 60.5887 16.8645H60.6173C61.2084 18.943 62.6004 23.0618 63.2297 25.0258H58.0336Z" fill="#FA0C00"/>
<path d="M78.5067 33.6828C80.2896 33.6828 82.1869 33.3587 84.1128 32.5292C84.2654 32.472 84.294 32.4052 84.294 32.2622C84.2367 31.7283 84.17 30.956 84.17 30.3649V12.4407C84.17 12.3262 84.17 12.269 84.027 12.269H80.7949C80.671 12.269 80.6138 12.3262 80.6138 12.4788V18.5521C80.1084 18.4949 79.7557 18.4663 79.3362 18.4663C74.121 18.4663 70.9175 21.9081 70.9175 26.208C70.9175 31.1944 74.2068 33.6828 78.5067 33.6828ZM80.6138 30.3649C80.0798 30.5365 79.4887 30.6033 78.8881 30.6033C76.5236 30.6033 74.5881 29.2685 74.5881 26.0269C74.5881 23.1571 76.5808 21.46 79.2218 21.46C79.7557 21.46 80.2229 21.5172 80.6138 21.6698V30.3649Z" fill="#FA0C00"/>
<path d="M94.6048 18.4663C90.1524 18.4663 87.397 21.8795 87.397 26.0937C87.397 29.8597 89.5898 33.6829 94.5381 33.6829C98.7236 33.6829 101.66 30.6033 101.66 25.9983C101.66 21.9368 99.1717 18.4663 94.6048 18.4663ZM94.4237 21.46C96.9407 21.46 98.0085 23.6243 98.0085 26.0937C98.0085 29.1446 96.4354 30.6605 94.6048 30.6605C92.3452 30.6605 91.0104 28.7632 91.0104 26.0269C91.0104 23.2143 92.431 21.46 94.4237 21.46Z" fill="#FA0C00"/>
<path d="M105.002 12.269C104.878 12.269 104.792 12.3262 104.792 12.4788V32.7675C104.792 32.8534 104.878 33.0059 105.002 33.0345C106.422 33.4731 107.91 33.6828 109.445 33.6828C113.84 33.6828 118.111 30.956 118.111 25.4644C118.111 21.4886 115.384 18.4663 111.113 18.4663C110.131 18.4663 109.216 18.6188 108.415 18.8858L108.377 12.5074C108.377 12.2976 108.32 12.269 108.11 12.269H105.002ZM114.46 25.8267C114.46 29.1159 112.21 30.6605 109.778 30.6605C109.273 30.6605 108.825 30.6319 108.415 30.5079V21.8509C108.882 21.6698 109.445 21.5172 110.484 21.5172C112.829 21.5172 114.46 23.0045 114.46 25.8267Z" fill="#FA0C00"/>
<path d="M130.173 26.8945C131.622 26.8945 132.814 26.8659 133.224 26.7706C133.377 26.742 133.434 26.6848 133.463 26.5608C133.548 26.2367 133.586 25.5597 133.586 24.7303C133.586 21.9082 131.889 18.4663 127.504 18.4663C123.023 18.4663 120.534 22.1179 120.534 26.2367C120.534 29.8883 122.46 33.6829 127.856 33.6829C129.878 33.6829 131.184 33.3587 132.309 32.8248C132.423 32.7676 132.48 32.6722 132.48 32.5006V30.0313C132.48 29.8883 132.395 29.8597 132.309 29.9169C131.184 30.3936 129.963 30.6319 128.629 30.6319C125.606 30.6319 124.233 28.9635 124.148 26.8945H130.173ZM124.148 24.3394C124.386 22.8902 125.301 21.317 127.351 21.317C129.611 21.317 130.202 23.2143 130.202 24.0724C130.202 24.101 130.202 24.225 130.202 24.3108C130.078 24.3394 129.697 24.3394 128.571 24.3394H124.148Z" fill="#FA0C00"/>
</g>
<defs>
<clipPath id="clip0_177_830">
<rect width="133" height="48" fill="white" transform="translate(0.75)"/>
</clipPath>
</defs>
</svg>
