<svg width="110" height="66" viewBox="0 0 110 66" fill="none" xmlns="http://www.w3.org/2000/svg">
<mask id="mask0_156_77" style="mask-type:luminance" maskUnits="userSpaceOnUse" x="19" y="-3" width="72" height="72">
<path d="M90.1699 -2.45862H19.1699V68.5414H90.1699V-2.45862Z" fill="white"/>
</mask>
<g mask="url(#mask0_156_77)">
<path d="M39.179 29.3865C39.179 30.2696 39.2737 30.984 39.4393 31.5091C39.6287 32.0342 39.8638 32.6067 40.1952 33.2264C40.3135 33.4173 40.3608 33.6081 40.3608 33.7752C40.3608 34.0134 40.2188 34.2515 39.9127 34.4911L38.4246 35.4925C38.2116 35.636 38.0001 35.707 37.8108 35.707C37.5741 35.707 37.3389 35.5872 37.1022 35.3727C36.7709 35.0148 36.4884 34.6331 36.2517 34.2515C36.0151 33.8462 35.7799 33.3936 35.5195 32.8448C33.678 35.0384 31.3631 36.136 28.5763 36.136C26.5928 36.136 25.01 35.5635 23.8533 34.4186C22.6966 33.2738 22.1064 31.7473 22.1064 29.8391C22.1064 27.8127 22.815 26.1664 24.2557 24.9268C25.6964 23.6873 27.6089 23.066 30.0407 23.066C30.8439 23.066 31.6707 23.137 32.5434 23.2569C33.4162 23.3767 34.314 23.5675 35.2592 23.782V22.041C35.2592 20.229 34.882 18.9643 34.1498 18.2247C33.394 17.4851 32.1189 17.1272 30.301 17.1272C29.4742 17.1272 28.6251 17.2219 27.7509 17.4378C26.8768 17.6523 26.0277 17.9141 25.2009 18.2484C24.8237 18.4155 24.5397 18.5102 24.374 18.559C24.2083 18.6064 24.09 18.63 23.9968 18.63C23.6655 18.63 23.5013 18.3919 23.5013 17.8904V16.7219C23.5013 16.3403 23.5486 16.0548 23.667 15.8876C23.7853 15.7205 23.9983 15.5534 24.3282 15.3862C25.155 14.9573 26.146 14.5993 27.3042 14.3123C28.4609 14.0017 29.6887 13.8597 30.9874 13.8597C33.7978 13.8597 35.8523 14.5031 37.1747 15.7915C38.4734 17.0799 39.1346 19.0353 39.1346 21.6579V29.385L39.179 29.3865ZM29.591 33.0105C30.3705 33.0105 31.1737 32.867 32.0228 32.5815C32.8733 32.296 33.6292 31.7709 34.2667 31.055C34.6439 30.6024 34.9279 30.101 35.0699 29.5285C35.2119 28.9561 35.3065 28.2638 35.3065 27.4533V26.4519C34.6217 26.2847 33.8895 26.1412 33.1336 26.0466C32.3778 25.9519 31.6456 25.9031 30.9134 25.9031C29.3307 25.9031 28.174 26.2137 27.3945 26.8572C26.6149 27.5006 26.2378 28.4073 26.2378 29.5995C26.2378 30.7207 26.5218 31.555 27.1119 32.1274C27.6785 32.725 28.5053 33.0105 29.591 33.0105ZM48.5539 35.5872C48.1294 35.5872 47.8454 35.5162 47.6561 35.349C47.4668 35.2056 47.3026 34.8728 47.1606 34.4186L41.6107 15.9838C41.4687 15.5075 41.3977 15.1969 41.3977 15.0297C41.3977 14.6481 41.5871 14.4336 41.9643 14.4336H44.2792C44.7273 14.4336 45.035 14.5046 45.2007 14.6718C45.39 14.8153 45.5305 15.1481 45.6725 15.6022L49.6397 31.3908L53.3228 15.6022C53.4411 15.1259 53.5831 14.8153 53.771 14.6718C53.9603 14.5283 54.2901 14.4336 54.7164 14.4336H56.6053C57.0535 14.4336 57.3611 14.5046 57.5505 14.6718C57.7398 14.8153 57.904 15.1481 57.9986 15.6022L61.7291 31.5816L65.8146 15.6022C65.9566 15.1259 66.1222 14.8153 66.2864 14.6718C66.4757 14.5283 66.7819 14.4336 67.2079 14.4336H69.4045C69.7817 14.4336 69.9947 14.6244 69.9947 15.0297C69.9947 15.1495 69.971 15.2679 69.9473 15.4114C69.9237 15.5548 69.8764 15.7456 69.7817 16.0075L64.0913 34.4423C63.9493 34.9186 63.7837 35.2292 63.5958 35.3727C63.408 35.5162 63.1003 35.6109 62.698 35.6109H60.6671C60.2189 35.6109 59.9112 35.5399 59.7219 35.3727C59.5325 35.2056 59.3684 34.8964 59.2737 34.4186L55.6142 19.0353L51.9782 34.395C51.8599 34.8713 51.7179 35.1819 51.53 35.349C51.3407 35.5162 51.0108 35.5872 50.5848 35.5872H48.5539ZM78.8978 36.2306C77.6701 36.2306 76.4424 36.0871 75.262 35.8017C74.0816 35.5162 73.1601 35.2056 72.5462 34.8476C72.1691 34.6331 71.9087 34.395 71.8141 34.1805C71.7194 33.966 71.6721 33.7279 71.6721 33.5134V32.2975C71.6721 31.7961 71.8614 31.5579 72.2149 31.5579C72.3569 31.5579 72.4989 31.5816 72.6394 31.6289C72.7814 31.6763 72.993 31.7724 73.2296 31.8671C74.0328 32.225 74.9055 32.5105 75.827 32.7013C76.7722 32.8922 77.6923 32.9868 78.6375 32.9868C80.1255 32.9868 81.2822 32.725 82.0854 32.1999C82.8886 31.6748 83.3131 30.9115 83.3131 29.9338C83.3131 29.2667 83.1001 28.7179 82.6756 28.2638C82.2511 27.8112 81.4479 27.4059 80.2912 27.0243L76.8669 25.9504C75.1437 25.4016 73.8686 24.5911 73.0891 23.5172C72.3096 22.4685 71.9087 21.2999 71.9087 20.0589C71.9087 19.0575 72.1217 18.1744 72.5462 17.4112C72.9708 16.6479 73.5388 15.9808 74.2458 15.4557C74.9543 14.907 75.7575 14.5017 76.7012 14.2162C77.6464 13.9322 78.6375 13.8124 79.6773 13.8124C80.1965 13.8124 80.7394 13.836 81.26 13.907C81.8029 13.978 82.2984 14.0742 82.7954 14.1689C83.2673 14.2887 83.7169 14.407 84.1414 14.5505C84.566 14.694 84.8973 14.836 85.134 14.9794C85.4653 15.1703 85.7005 15.3611 85.8425 15.5755C85.9845 15.7664 86.0555 16.0282 86.0555 16.3625V17.4837C86.0555 17.9851 85.8661 18.2469 85.5126 18.2469C85.3233 18.2469 85.0171 18.1523 84.6148 17.9614C83.2687 17.3417 81.757 17.031 80.0811 17.031C78.7351 17.031 77.673 17.2455 76.9409 17.6982C76.2087 18.1508 75.8315 18.843 75.8315 19.8208C75.8315 20.4879 76.0682 21.0603 76.54 21.5144C77.0119 21.967 77.886 22.4211 79.1374 22.8264L82.4907 23.9003C84.1903 24.4491 85.4194 25.2123 86.1501 26.19C86.8809 27.1678 87.2359 28.289 87.2359 29.5285C87.2359 30.5536 87.0229 31.484 86.622 32.2946C86.1975 33.1052 85.6295 33.8211 84.8988 34.3935C84.1666 34.9896 83.2924 35.4186 82.2777 35.7292C81.2112 36.0635 80.1018 36.2306 78.8978 36.2306Z" fill="#252F3E"/>
<path d="M83.3601 47.8212C75.5915 53.6166 64.304 56.6932 54.598 56.6932C40.9971 56.6932 28.7407 51.6138 19.4841 43.1707C18.7519 42.5036 19.4131 41.5969 20.2873 42.122C30.2997 47.9883 42.6493 51.5428 55.4246 51.5428C64.0437 51.5428 73.5133 49.7308 82.2256 46.0092C83.5258 45.4131 84.6351 46.8671 83.3601 47.8212ZM86.595 44.1011C85.6025 42.8127 80.0305 43.4813 77.5041 43.7905C76.7482 43.8851 76.6299 43.218 77.3147 42.7166C81.7537 39.5689 89.0505 40.4742 89.901 41.5244C90.7515 42.5983 89.6643 49.9675 85.5093 53.4968C84.8718 54.0455 84.2579 53.7586 84.5405 53.0441C85.4857 50.6834 87.5876 45.3643 86.595 44.1011Z" fill="#FF9900"/>
</g>
</svg>
