<svg width="110" height="66" viewBox="0 0 110 66" fill="none" xmlns="http://www.w3.org/2000/svg">
<path d="M20.5642 46.8894C25.5828 46.0028 29.7278 45.2692 29.7754 45.2592L29.862 45.2408L25.124 39.6051C22.518 36.5054 20.386 33.9573 20.386 33.9427C20.386 33.9149 25.2784 20.4422 25.3058 20.3942C25.3151 20.3783 28.6445 26.1265 33.3766 34.3282C37.8069 42.0069 41.4595 48.338 41.4935 48.3973L41.5551 48.5051L26.4974 48.5032L11.4395 48.5013L20.5642 46.8894ZM78.3093 45.5265C76.0174 45.3795 74.6839 44.0743 74.3304 41.6313C74.2364 40.9814 74.2364 40.9646 74.2268 36.7456L74.2172 32.6624H75.2319H76.2466L76.254 36.6119C76.2614 40.1716 76.2659 40.5889 76.2999 40.8393C76.4382 41.8556 76.7133 42.539 77.1815 43.0296C77.5557 43.4221 77.9943 43.652 78.6015 43.7739C78.8884 43.8316 79.7027 43.8316 79.9638 43.7742C80.5798 43.6388 81.0732 43.3709 81.508 42.9359C82.0043 42.44 82.3711 41.7365 82.5486 40.941L82.6085 40.6729L82.6152 36.6899L82.6218 32.707H83.6572H84.6934V38.9684V45.2297H83.6683H82.6433V44.2363C82.6433 43.5612 82.6359 43.2453 82.6204 43.2505C82.607 43.2548 82.5545 43.3353 82.5028 43.4295C82.15 44.0737 81.5613 44.6628 80.9164 45.0177C80.1435 45.4431 79.3684 45.5944 78.3093 45.5265ZM101.574 45.5163C100.765 45.4555 99.9133 45.1773 99.2166 44.7466C97.7493 43.8387 96.881 42.3423 96.6266 40.283C96.5386 39.5703 96.5275 38.6131 96.6014 38.0076C96.7656 36.6546 97.2967 35.3263 98.054 34.3781C98.2485 34.135 98.6885 33.6947 98.9319 33.5006C99.5879 32.9765 100.356 32.6101 101.171 32.4318C101.646 32.3279 102.483 32.279 102.987 32.3258C104.255 32.4433 105.417 33.0401 106.206 33.9796C107.008 34.934 107.45 36.2676 107.506 37.9099C107.515 38.1672 107.517 38.6185 107.51 38.9126L107.499 39.4474L103.059 39.453L98.6198 39.4586V39.6568C98.6198 40.2599 98.7662 40.9468 99.0199 41.5313C99.2381 42.0353 99.6145 42.5857 99.9229 42.8521C100.555 43.3982 101.327 43.725 102.173 43.8037C102.487 43.8328 103.287 43.8021 103.645 43.7472C104.664 43.5905 105.634 43.1904 106.417 42.6033C106.509 42.5343 106.597 42.4698 106.613 42.4599C106.635 42.4456 106.641 42.626 106.641 43.3846L106.64 44.3272L106.43 44.4569C105.544 45.0048 104.529 45.3567 103.455 45.4883C103.134 45.5276 101.958 45.5451 101.574 45.5163ZM105.438 37.5668C105.438 36.5566 105.012 35.4343 104.41 34.8563C103.98 34.4439 103.46 34.1918 102.842 34.0961C102.55 34.0509 101.934 34.0683 101.625 34.1306C100.974 34.2622 100.435 34.5487 99.9651 35.0131C99.4703 35.502 99.099 36.0957 98.8661 36.7722C98.7825 37.0154 98.6841 37.4148 98.6538 37.6369L98.639 37.7427H102.039H105.438V37.5668ZM45.2133 45.2018C45.2184 45.1865 46.7261 41.2258 48.5636 36.4003L51.9045 27.6265H52.9779H54.0514L54.1404 27.8549C54.4126 28.5529 60.8285 45.2107 60.8285 45.2193C60.8285 45.225 60.3145 45.2295 59.6866 45.2295L58.5447 45.2292L57.6202 42.7672L56.695 40.3052H52.9719L49.2485 40.3052L49.2161 40.3887C49.1983 40.4347 48.8032 41.5425 48.3382 42.8506L47.4925 45.2288L46.3482 45.2292C45.4424 45.2295 45.2058 45.2238 45.2133 45.2018ZM56.0153 38.4264C56.0153 38.4225 55.3933 36.7355 54.6327 34.6774C53.2097 30.8271 53.1301 30.5955 53.0177 29.9773C52.965 29.6875 52.9384 29.6794 52.9071 29.9439C52.8847 30.1329 52.7877 30.556 52.7129 30.7906C52.6758 30.907 52.035 32.6658 51.2889 34.6988C50.5429 36.7319 49.9325 38.404 49.9325 38.4145C49.9325 38.4249 51.3012 38.4335 52.974 38.4335C54.6469 38.4335 56.0153 38.4303 56.0153 38.4264ZM61.5193 44.909V44.5884L65.2291 39.4888L68.9388 34.3892L65.5796 34.3781L62.2212 34.367L62.2153 33.5147L62.2093 32.6624H67.0677H71.9252V32.9502V33.2381L68.2155 38.3654C66.175 41.1855 64.505 43.4976 64.505 43.5033C64.505 43.5092 66.1543 43.5139 68.1704 43.5139H71.8358V44.3718V45.2297H66.6779H61.5193V44.909ZM88.7412 45.2148C88.733 45.2066 88.7264 42.379 88.7264 38.9312V32.6624H89.7403H90.7536V33.9547C90.7536 34.6655 90.7624 35.2471 90.7728 35.2471C90.7839 35.2471 90.8327 35.1307 90.883 34.9886C91.1108 34.3369 91.5057 33.728 92.0153 33.2441C92.4738 32.8081 92.9982 32.5474 93.6172 32.4477C93.791 32.4196 93.9382 32.4142 94.2858 32.4233C94.7222 32.4347 94.9507 32.4666 95.2162 32.5534L95.2998 32.5807V33.6331V34.6854L95.0602 34.5655C94.6371 34.3537 94.2192 34.2699 93.7178 34.296C93.3909 34.313 93.1764 34.3549 92.9154 34.4529C92.3777 34.6546 91.9421 35.0105 91.6374 35.4964C91.1966 36.1996 90.8822 37.1037 90.7898 37.9346C90.7728 38.0837 90.7632 39.2982 90.7595 41.6923L90.7536 45.2297H89.7544C89.2056 45.2297 88.7493 45.2229 88.7412 45.2148ZM2.49316 45.1708C2.49316 45.1628 4.72567 41.2873 7.45436 36.5586L12.4155 27.9608L18.1972 23.1087C21.3771 20.4402 23.9875 18.2535 23.9979 18.2494C24.0084 18.2455 23.9665 18.3508 23.905 18.4834C23.8434 18.6161 21.0182 24.6758 17.6269 31.9493L11.4608 45.174L6.97696 45.1796C4.51089 45.1826 2.49316 45.1787 2.49316 45.1708Z" fill="#0089D6"/>
</svg>
