<svg width="29" height="30" viewBox="0 0 29 30" fill="none" xmlns="http://www.w3.org/2000/svg">
<g clip-path="url(#clip0_377_322)">
<path d="M2.58038 8.77684L8.46377 2.89346L7.48309 1.91279C5.86106 0.290754 3.22174 0.290754 1.59993 1.913C0.814048 2.69867 0.381348 3.74326 0.381348 4.85459C0.381348 5.9657 0.814048 7.0105 1.59993 7.79617L2.58038 8.77684Z" fill="#FF7800"/>
<path d="M3.75732 9.95365L6.11063 7.60034L9.48275 10.9725L7.12944 13.3258L3.75732 9.95365Z" fill="#FF7800"/>
<path d="M7.2876 6.42362L9.64091 4.07031L13.013 7.44221L10.6597 9.79552L7.2876 6.42362Z" fill="#FF7800"/>
<path d="M20.693 25.7128C20.693 25.7131 20.693 25.7131 20.6928 25.7131L20.3052 26.1009L27.6403 29.0349C27.7404 29.075 27.845 29.0945 27.949 29.0945C28.1657 29.0945 28.3785 29.0098 28.5375 28.8507C28.7728 28.6154 28.8452 28.2625 28.7217 27.9533L25.7877 20.6182L20.693 25.7128Z" fill="#FF7800"/>
<path d="M16.1504 22.3465L18.5037 19.9932L21.2815 22.7712L18.9282 25.1245L16.1504 22.3465Z" fill="#FF7800"/>
<path d="M19.6802 18.8167L22.0335 16.4631L24.8115 19.2411L22.4582 21.5944L19.6802 18.8167Z" fill="#FF7800"/>
<path d="M7.58233 23.0704C7.25732 23.3952 7.25732 23.9222 7.58233 24.247L9.73955 26.4042L7.29286 28.8509C6.96806 29.1759 6.4411 29.1759 6.11631 28.8509L0.625107 23.3597C0.300094 23.0349 0.300094 22.5079 0.625107 22.1831L21.8699 0.93834C22.1947 0.613327 22.7217 0.613327 23.0464 0.93834L28.5376 6.42932C28.7002 6.59183 28.7814 6.80482 28.7814 7.01781C28.7814 7.23059 28.7002 7.44358 28.5376 7.60609L26.091 10.0528L23.1494 7.11098C22.8244 6.78597 22.2976 6.78597 21.9726 7.11098C21.6478 7.436 21.6478 7.96274 21.9726 8.28775L24.9142 11.2293L23.056 13.0878L20.8988 10.9303C20.574 10.6055 20.047 10.6055 19.722 10.9303C19.3972 11.2553 19.3972 11.7821 19.722 12.1071L21.8792 14.2643L20.021 16.1227L17.0794 13.1809C16.7544 12.8561 16.2277 12.8561 15.9027 13.1809C15.5779 13.5059 15.5779 14.0327 15.9027 14.3577L18.8442 17.2993L16.986 19.1577L14.8288 17.0005C14.5038 16.6755 13.9771 16.6755 13.6521 17.0005C13.3273 17.3253 13.3273 17.852 13.6521 18.177L15.8093 20.3342L13.9511 22.1927L11.0095 19.2509C10.6845 18.9261 10.1577 18.9261 9.83272 19.2509C9.50793 19.5759 9.50793 20.1026 9.83272 20.4276L12.7743 23.3692L10.9161 25.2276L8.75888 23.0704C8.43408 22.7454 7.90713 22.7454 7.58233 23.0704Z" fill="#FF7800"/>
</g>
<defs>
<clipPath id="clip0_377_322">
<rect width="28.4" height="28.4" fill="white" transform="translate(0.437012 0.75)"/>
</clipPath>
</defs>
</svg>
