<svg width="137" height="29" viewBox="0 0 137 29" fill="none" xmlns="http://www.w3.org/2000/svg">
<g clip-path="url(#clip0_377_288)">
<rect width="136.447" height="28.4" transform="translate(0.0170898 0.274902)" fill="white"/>
<path d="M44.047 22.8994C43.3595 22.9365 42.6795 22.7421 42.1167 22.3477C41.8815 22.1744 41.6923 21.9467 41.5655 21.6843C41.4386 21.4219 41.3778 21.1328 41.3885 20.8419V10.1867C41.3829 10.1416 41.3877 10.0958 41.4025 10.0528C41.4174 10.0098 41.4419 9.97079 41.4743 9.93864C41.5066 9.90648 41.5459 9.88211 41.5891 9.86727C41.6323 9.85252 41.6784 9.84776 41.7237 9.85334H43.6655C43.8851 9.85334 43.9892 9.96832 43.9892 10.1867V20.0143C43.9892 20.4511 44.1857 20.6695 44.5902 20.6695C44.7617 20.6766 44.9332 20.6572 45.0988 20.6121C45.3299 20.6121 45.4571 20.681 45.4687 20.8879L45.642 22.3247C45.6503 22.3666 45.6496 22.4098 45.6397 22.4513C45.6298 22.4929 45.6111 22.5318 45.5849 22.5656C45.5586 22.5994 45.5253 22.6272 45.4873 22.6471C45.4493 22.667 45.4075 22.6786 45.3646 22.6811C44.9393 22.8208 44.4949 22.8944 44.047 22.8994Z" fill="#282938"/>
<path d="M54.9701 21.6701C53.9944 22.4718 52.7683 22.9103 51.5026 22.9103C50.2368 22.9103 49.0108 22.4718 48.035 21.6701C47.1774 20.8091 46.6963 19.6462 46.6963 18.4344C46.6963 17.2225 47.1774 16.0597 48.035 15.1987C49.0127 14.4012 50.238 13.9653 51.5026 13.9653C52.7671 13.9653 53.9925 14.4012 54.9701 15.1987C55.8079 16.0677 56.2757 17.2248 56.2757 18.4287C56.2757 19.6325 55.8079 20.7897 54.9701 21.6586V21.6701ZM49.8613 20.1528C50.314 20.5607 50.9031 20.7866 51.5141 20.7866C52.125 20.7866 52.7142 20.5607 53.167 20.1528C53.5768 19.6843 53.8025 19.0841 53.8025 18.4632C53.8025 17.8421 53.5768 17.2421 53.167 16.7735C52.7142 16.3656 52.125 16.1397 51.5141 16.1397C50.9031 16.1397 50.314 16.3656 49.8613 16.7735C49.4514 17.2421 49.2258 17.8421 49.2258 18.4632C49.2258 19.0841 49.4514 19.6843 49.8613 20.1528Z" fill="#282938"/>
<path d="M66.9677 14.255C67.1873 14.255 67.2913 14.3699 67.2913 14.5883V22.8298C67.3115 23.386 67.2068 23.9397 66.9849 24.4508C66.763 24.9618 66.4293 25.4171 66.0084 25.7838C65.0738 26.5764 63.8718 26.9871 62.6448 26.9333C61.5365 26.972 60.443 26.6711 59.5125 26.0712C59.1151 25.8117 58.7756 25.4737 58.5152 25.0782C58.2546 24.6828 58.0787 24.2383 57.9983 23.7724C57.9983 23.5424 57.9983 23.439 58.3104 23.439H60.2522C60.3347 23.4418 60.4145 23.4682 60.4822 23.5151C60.5499 23.562 60.6025 23.6274 60.6336 23.7034C60.7596 24.0525 61.0107 24.3431 61.3387 24.5195C61.7385 24.7246 62.1835 24.8273 62.6333 24.8183C62.9046 24.8331 63.1763 24.7939 63.4323 24.7031C63.6883 24.6124 63.9236 24.4718 64.1243 24.2896C64.3077 24.099 64.4504 23.8734 64.5437 23.6264C64.6371 23.3795 64.6792 23.1163 64.6675 22.8527V22.1286C63.9723 22.6372 63.1261 22.9001 62.2634 22.8757C61.6596 22.8976 61.0575 22.7979 60.4934 22.5826C59.9293 22.3673 59.4149 22.0409 58.9808 21.6228C58.1475 20.7655 57.6816 19.6198 57.6816 18.4275C57.6816 17.235 58.1475 16.0893 58.9808 15.232C59.417 14.8177 59.9321 14.4944 60.4958 14.2813C61.0597 14.0681 61.6606 13.9692 62.2634 13.9907C63.151 13.9673 64.02 14.2473 64.7253 14.7838V14.5998C64.72 14.5558 64.7247 14.5111 64.7389 14.4691C64.7531 14.427 64.7766 14.3886 64.8075 14.3567C64.8385 14.3248 64.8762 14.3001 64.918 14.2846C64.9598 14.2689 65.0045 14.2628 65.049 14.2665L66.9677 14.255ZM62.483 20.8297C62.7808 20.8389 63.077 20.7829 63.3506 20.6658C63.6242 20.5486 63.8686 20.3731 64.0665 20.1516C64.4508 19.6581 64.6593 19.0516 64.6593 18.4275C64.6593 17.8033 64.4508 17.1968 64.0665 16.7033C63.8693 16.4848 63.6264 16.3119 63.3548 16.1968C63.0833 16.0816 62.7896 16.0269 62.4945 16.0367C62.1934 16.0272 61.8936 16.083 61.6163 16.2001C61.3389 16.3172 61.0903 16.4928 60.888 16.7148C60.4622 17.1869 60.2383 17.8053 60.2638 18.4389C60.2429 19.0663 60.4618 19.6783 60.8763 20.1516C61.0793 20.373 61.3279 20.5482 61.6052 20.6653C61.8825 20.7823 62.1819 20.8385 62.483 20.8297Z" fill="#282938"/>
<path d="M77.2662 21.6695C76.2886 22.4669 75.0632 22.9028 73.7987 22.9028C72.5342 22.9028 71.3087 22.4669 70.3312 21.6695C69.4925 20.7986 69.0244 19.6395 69.0244 18.4338C69.0244 17.2281 69.4925 16.0689 70.3312 15.1981C71.3097 14.4026 72.5348 13.968 73.7987 13.968C75.0626 13.968 76.2877 14.4026 77.2662 15.1981C78.1041 16.067 78.5718 17.2242 78.5718 18.428C78.5718 19.6318 78.1041 20.7891 77.2662 21.6579V21.6695ZM72.1458 20.1522C72.3674 20.3618 72.6286 20.5256 72.9143 20.6341C73.2 20.7426 73.5045 20.7937 73.8102 20.7844C74.114 20.7922 74.4163 20.7404 74.6999 20.6319C74.9836 20.5234 75.2429 20.3604 75.4631 20.1522C75.8662 19.6804 76.0876 19.0816 76.0876 18.4625C76.0876 17.8434 75.8662 17.2446 75.4631 16.7728C75.2429 16.5646 74.9836 16.4016 74.6999 16.2931C74.4163 16.1846 74.114 16.1328 73.8102 16.1406C73.5045 16.1313 73.2 16.1824 72.9143 16.2909C72.6286 16.3994 72.3674 16.5632 72.1458 16.7728C71.7427 17.2446 71.5214 17.8434 71.5214 18.4625C71.5214 19.0816 71.7427 19.6804 72.1458 20.1522Z" fill="#282938"/>
<path d="M82.745 12.3018C82.4395 12.5678 82.0472 12.7144 81.6411 12.7144C81.2351 12.7144 80.8429 12.5678 80.5373 12.3018C80.3987 12.1718 80.2884 12.015 80.213 11.8411C80.1376 11.6671 80.0986 11.4797 80.0986 11.2903C80.0986 11.1009 80.1376 10.9134 80.213 10.7395C80.2884 10.5656 80.3987 10.4088 80.5373 10.2788C80.846 10.0195 81.237 9.8772 81.6411 9.8772C82.0452 9.8772 82.4363 10.0195 82.745 10.2788C82.8835 10.4088 82.9939 10.5656 83.0693 10.7395C83.1447 10.9134 83.1836 11.1009 83.1836 11.2903C83.1836 11.4797 83.1447 11.6671 83.0693 11.8411C82.9939 12.015 82.8835 12.1718 82.745 12.3018ZM82.9877 22.8996C82.3006 22.9331 81.6218 22.7391 81.0574 22.3478C80.8258 22.1719 80.6399 21.9434 80.5153 21.6815C80.3906 21.4196 80.3308 21.1318 80.3408 20.8421V14.5892C80.3352 14.5441 80.34 14.4982 80.3549 14.4553C80.3697 14.4123 80.3942 14.3733 80.4266 14.3411C80.4589 14.309 80.4982 14.2846 80.5414 14.2698C80.5846 14.255 80.6306 14.2502 80.676 14.2558H82.6179C82.8375 14.2558 82.9415 14.3708 82.9415 14.5892V20.0145C82.9415 20.4513 83.138 20.6697 83.5309 20.6697C83.7062 20.676 83.8815 20.6566 84.0511 20.6122C84.2822 20.6122 84.4094 20.6812 84.421 20.8881L84.5943 22.3249C84.6026 22.3668 84.6018 22.4099 84.592 22.4515C84.5821 22.493 84.5634 22.5321 84.5372 22.5658C84.5109 22.5996 84.4776 22.6273 84.4396 22.6472C84.4016 22.6672 84.3598 22.6787 84.3169 22.6812C83.8878 22.8217 83.4395 22.8954 82.9877 22.8996Z" fill="#282938"/>
<path d="M91.7384 13.9797C92.3455 13.9559 92.9499 14.0535 93.5177 14.2667C94.0863 14.48 94.6046 14.8046 95.0442 15.2211C95.862 16.0935 96.3162 17.2415 96.3162 18.4338C96.3162 19.6261 95.862 20.7742 95.0442 21.6465C94.6074 22.0667 94.0891 22.3944 93.5204 22.6098C92.9526 22.8251 92.3464 22.9237 91.7384 22.8993C90.873 22.9185 90.0247 22.6562 89.3228 22.1522V26.3016C89.3228 26.52 89.2072 26.6236 88.9876 26.6236H87.0458C87.0015 26.6317 86.9558 26.6292 86.9127 26.6159C86.8697 26.6026 86.8305 26.5791 86.7986 26.5474C86.7668 26.5157 86.7431 26.4768 86.7298 26.4339C86.7165 26.3911 86.7138 26.3457 86.7222 26.3016V16.8763C86.7357 16.7842 86.7275 16.6901 86.698 16.6016C86.6686 16.5132 86.6187 16.4327 86.5525 16.3669C86.4862 16.301 86.4054 16.2514 86.3164 16.2221C86.2275 16.1928 86.1329 16.1846 86.0402 16.1981H85.6587C85.4045 16.1981 85.2773 16.1062 85.2773 15.9223V14.5659C85.2713 14.482 85.2944 14.3986 85.3429 14.3296C85.3912 14.2605 85.4619 14.2101 85.5431 14.1867C85.9429 14.0421 86.3661 13.972 86.7915 13.9797C87.2157 13.9424 87.6414 14.0318 88.0141 14.2366C88.3868 14.4414 88.6896 14.7522 88.8836 15.1292C89.2559 14.7547 89.7011 14.4596 90.1919 14.262C90.6828 14.0643 91.2091 13.9683 91.7384 13.9797ZM89.9354 20.1522C90.1415 20.3664 90.3891 20.5369 90.6632 20.6533C90.9374 20.7698 91.2323 20.8298 91.5305 20.8298C91.829 20.8298 92.1239 20.7698 92.3977 20.6533C92.6715 20.5369 92.9197 20.3664 93.1257 20.1522C93.5598 19.6707 93.7878 19.0398 93.7613 18.3936C93.7915 17.7468 93.5625 17.1145 93.1257 16.6349C92.9197 16.4207 92.6715 16.2502 92.3977 16.1338C92.1239 16.0174 91.829 15.9574 91.5305 15.9574C91.2323 15.9574 90.9374 16.0174 90.6632 16.1338C90.3891 16.2502 90.1415 16.4207 89.9354 16.6349C89.5148 17.1229 89.2959 17.7514 89.3228 18.3936C89.2994 19.0353 89.5178 19.6625 89.9354 20.1522Z" fill="#282938"/>
<path d="M101.77 22.8988C100.733 22.9412 99.7044 22.6944 98.7996 22.1861C98.437 21.9689 98.1284 21.6732 97.8958 21.3209C97.6641 20.9688 97.5148 20.5692 97.459 20.1517C97.459 19.9217 97.5405 19.8069 97.7942 19.8069H99.4938C99.5744 19.81 99.6531 19.8353 99.72 19.8799C99.7877 19.9245 99.8408 19.9867 99.8747 20.0597C100.117 20.6804 100.753 20.9908 101.77 20.9908C102.126 21.0069 102.478 20.9358 102.8 20.7838C102.91 20.7342 103.005 20.6556 103.074 20.5563C103.143 20.4571 103.184 20.3411 103.192 20.2207C103.192 19.9217 103.008 19.7149 102.638 19.5769C102.199 19.4317 101.745 19.3353 101.285 19.2896C100.74 19.2282 100.2 19.1322 99.6669 19.0022C99.1485 18.8856 98.6779 18.6174 98.3143 18.2321C98.1009 17.9702 97.9434 17.6674 97.8518 17.3424C97.7603 17.0174 97.7374 16.6773 97.7841 16.3431C97.8308 16.0089 97.9462 15.6878 98.1229 15.3997C98.2996 15.1117 98.5341 14.863 98.8116 14.6688C99.6449 14.1411 100.622 13.884 101.608 13.9332C102.564 13.9011 103.509 14.136 104.336 14.6114C104.67 14.7992 104.957 15.0587 105.177 15.3709C105.397 15.6831 105.544 16.0401 105.608 16.416C105.608 16.6458 105.504 16.7608 105.296 16.7608H103.585C103.513 16.765 103.442 16.7476 103.379 16.7107C103.318 16.6738 103.268 16.6191 103.238 16.554C103.124 16.2817 102.909 16.0636 102.638 15.9447C102.331 15.7853 101.989 15.7063 101.643 15.7149C101.304 15.6966 100.966 15.7637 100.66 15.9103C100.553 15.9516 100.461 16.024 100.395 16.1183C100.329 16.2125 100.292 16.3242 100.291 16.439C100.299 16.5962 100.356 16.7469 100.456 16.8689C100.556 16.991 100.692 17.078 100.845 17.1172C101.29 17.2835 101.751 17.3992 102.221 17.462C102.762 17.5328 103.298 17.6325 103.828 17.7609C104.346 17.8774 104.817 18.1456 105.181 18.531C105.375 18.7432 105.525 18.9917 105.622 19.2619C105.719 19.5322 105.761 19.819 105.747 20.1057C105.757 20.503 105.663 20.8961 105.475 21.2466C105.286 21.5973 105.009 21.8932 104.671 22.1057C103.808 22.657 102.796 22.9337 101.77 22.8988Z" fill="#282938"/>
<path d="M117.964 22.3247C117.97 22.3655 117.969 22.4072 117.959 22.4474C117.949 22.4875 117.931 22.5252 117.906 22.5585C117.882 22.5917 117.851 22.6196 117.815 22.6407C117.779 22.6616 117.74 22.6754 117.698 22.681C117.276 22.818 116.836 22.8916 116.393 22.8994C115.953 22.9446 115.509 22.8764 115.104 22.7011C114.699 22.526 114.347 22.2498 114.08 21.8994C113.264 22.5974 112.209 22.9556 111.133 22.8994C110.633 22.9223 110.135 22.841 109.669 22.6609C109.204 22.4807 108.781 22.2057 108.428 21.8534C108.079 21.4842 107.807 21.0487 107.63 20.5727C107.453 20.0967 107.375 19.5901 107.4 19.0832V14.589C107.4 14.3706 107.503 14.2556 107.723 14.2556H109.666C109.884 14.2556 109.989 14.3706 109.989 14.589V18.7384C109.968 19.2554 110.145 19.761 110.486 20.1523C110.655 20.3315 110.862 20.4725 111.091 20.5656C111.321 20.6588 111.568 20.702 111.815 20.6925C112.068 20.7035 112.321 20.6645 112.559 20.5777C112.797 20.4909 113.016 20.358 113.202 20.1867C113.378 20.0062 113.515 19.7917 113.605 19.5564C113.694 19.3212 113.734 19.0701 113.722 18.8189V14.589C113.722 14.3706 113.826 14.2556 114.046 14.2556H116.011C116.231 14.2556 116.334 14.3706 116.334 14.589V20.0029C116.334 20.4511 116.531 20.6695 116.913 20.6695C117.091 20.6764 117.271 20.6571 117.444 20.612C117.488 20.5998 117.534 20.5977 117.579 20.6057C117.623 20.6136 117.666 20.6315 117.702 20.6581C117.739 20.6846 117.769 20.7191 117.79 20.7589C117.812 20.7987 117.824 20.8428 117.826 20.8879L117.964 22.3247Z" fill="#282938"/>
<path d="M136.331 22.3249C136.341 22.3661 136.342 22.409 136.333 22.4506C136.325 22.4922 136.308 22.5314 136.282 22.5655C136.257 22.5996 136.224 22.6276 136.187 22.6476C136.149 22.6676 136.107 22.6791 136.065 22.6813C135.636 22.8202 135.187 22.8938 134.735 22.8996C134.049 22.9349 133.369 22.7408 132.805 22.3479C132.561 22.1796 132.364 21.9542 132.228 21.6915C132.094 21.4289 132.026 21.1372 132.031 20.8422V18.141C132.055 17.6256 131.882 17.1202 131.545 16.7272C131.383 16.5475 131.183 16.4059 130.959 16.3125C130.735 16.219 130.494 16.1762 130.251 16.187C130.032 16.1787 129.814 16.22 129.615 16.3076C129.414 16.3952 129.236 16.5269 129.095 16.6927C128.789 17.0779 128.634 17.5592 128.656 18.0491V22.2905C128.656 22.5089 128.551 22.6238 128.333 22.6238H126.378C126.333 22.6294 126.288 22.6246 126.244 22.6098C126.201 22.5951 126.161 22.5706 126.129 22.5386C126.097 22.5064 126.072 22.4673 126.058 22.4243C126.042 22.3814 126.038 22.3356 126.043 22.2905V18.141C126.069 17.6312 125.909 17.1294 125.593 16.7272C125.452 16.5583 125.275 16.4222 125.075 16.3289C124.876 16.2355 124.658 16.187 124.437 16.187C124.201 16.1775 123.966 16.2176 123.746 16.3048C123.528 16.392 123.33 16.5242 123.166 16.6927C122.835 17.0656 122.665 17.5526 122.692 18.0491V22.2905C122.697 22.3356 122.692 22.3814 122.678 22.4243C122.662 22.4673 122.638 22.5064 122.605 22.5386C122.573 22.5706 122.534 22.5951 122.491 22.6098C122.448 22.6246 122.402 22.6294 122.356 22.6238H120.473C120.253 22.6238 120.148 22.5089 120.148 22.2905V16.8766C120.162 16.7845 120.154 16.6904 120.125 16.6019C120.095 16.5135 120.045 16.433 119.979 16.3672C119.913 16.3013 119.832 16.2517 119.743 16.2224C119.654 16.1931 119.56 16.1849 119.467 16.1985H119.085C118.831 16.1985 118.703 16.1065 118.703 15.9226V14.5662C118.698 14.4823 118.721 14.3989 118.769 14.3299C118.818 14.2609 118.888 14.2104 118.97 14.187C119.369 14.0424 119.792 13.9723 120.218 13.98C120.627 13.9455 121.036 14.0264 121.4 14.2135C121.764 14.4006 122.068 14.6862 122.276 15.0375C122.665 14.6699 123.127 14.3864 123.633 14.2045C124.137 14.0225 124.675 13.9461 125.212 13.98C125.732 13.9548 126.252 14.0519 126.727 14.2636C127.203 14.4753 127.623 14.7955 127.951 15.1984C128.333 14.785 128.803 14.4612 129.327 14.2505C129.851 14.0398 130.415 13.9474 130.979 13.98C131.484 13.9565 131.987 14.0374 132.459 14.2175C132.931 14.3975 133.359 14.6728 133.718 15.026C134.07 15.3944 134.342 15.8298 134.518 16.306C134.695 16.7823 134.773 17.2892 134.747 17.7961V20.0145C134.747 20.4513 134.943 20.6698 135.313 20.6698C135.493 20.6781 135.672 20.6587 135.845 20.6123C136.084 20.6123 136.211 20.7042 136.226 20.8882L136.331 22.3249Z" fill="#282938"/>
<path d="M0.795675 12.7617C1.64842 9.35331 3.62338 6.32654 6.40605 4.16343C9.18869 2.00031 12.6192 0.825195 16.1511 0.825195C19.6831 0.825195 23.1135 2.00031 25.8962 4.16343C28.6789 6.32654 30.6539 9.35331 31.5066 12.7617H30.1196C27.7798 12.7275 25.4879 13.4229 23.5659 14.7503C23.455 14.8302 23.3391 14.9031 23.2192 14.9687H23.0574C22.9373 14.9031 22.8215 14.8302 22.7106 14.7503C20.7715 13.4536 18.4879 12.7611 16.1511 12.7611C13.8144 12.7611 11.5307 13.4536 9.59172 14.7503C9.48073 14.8302 9.36498 14.9031 9.24492 14.9687H9.08312C8.96309 14.9031 8.84729 14.8302 8.73636 14.7503C6.81434 13.4229 4.5225 12.7275 2.18269 12.7617H0.795675ZM27.6229 19.9687C28.3349 19.4173 29.2174 19.1288 30.1196 19.1526H31.9805V15.4629H30.1196C28.5305 15.4438 26.9779 15.9357 25.6927 16.8653C24.9694 17.3955 24.0945 17.6815 23.196 17.6815C22.2976 17.6815 21.4226 17.3955 20.6994 16.8653C19.3816 15.9531 17.8145 15.464 16.2089 15.464C14.6033 15.464 13.0362 15.9531 11.7185 16.8653C10.9952 17.3955 10.1203 17.6815 9.22184 17.6815C8.3233 17.6815 7.4484 17.3955 6.72518 16.8653C5.42416 15.9237 3.84919 15.4313 2.24048 15.4629H0.321777V19.1526H2.18269C3.08484 19.1288 3.96731 19.4173 4.67933 19.9687C5.99469 20.8816 7.56004 21.371 9.16402 21.371C10.768 21.371 12.3334 20.8816 13.6488 19.9687C14.3617 19.419 15.2434 19.1307 16.1454 19.1526C17.0477 19.1269 17.9309 19.4156 18.642 19.9687C19.9597 20.8809 21.5269 21.37 23.1324 21.37C24.738 21.37 26.3051 20.8809 27.6229 19.9687ZM27.6229 26.5665C28.3349 26.0151 29.2174 25.7266 30.1196 25.7504H31.9805V22.0607H30.1196C28.5305 22.0416 26.9779 22.5334 25.6927 23.463C24.9694 23.9933 24.0945 24.2793 23.196 24.2793C22.2976 24.2793 21.4226 23.9933 20.6994 23.463C19.3816 22.5508 17.8145 22.0618 16.2089 22.0618C14.6033 22.0618 13.0362 22.5508 11.7185 23.463C10.9952 23.9933 10.1203 24.2793 9.22184 24.2793C8.3233 24.2793 7.4484 23.9933 6.72518 23.463C5.42416 22.5215 3.84919 22.0291 2.24048 22.0607H0.321777V25.7504H2.18269C3.08484 25.7266 3.96731 26.0151 4.67933 26.5665C5.99469 27.4793 7.56004 27.9687 9.16402 27.9687C10.768 27.9687 12.3334 27.4793 13.6488 26.5665C14.3617 26.0167 15.2434 25.7285 16.1454 25.7504C17.0477 25.7247 17.9309 26.0134 18.642 26.5665C19.9597 27.4787 21.5269 27.9677 23.1324 27.9677C24.738 27.9677 26.3051 27.4787 27.6229 26.5665Z" fill="#282938"/>
</g>
<defs>
<clipPath id="clip0_377_288">
<rect width="136.447" height="28.4" fill="white" transform="translate(0.0170898 0.274902)"/>
</clipPath>
</defs>
</svg>
