<svg width="144" height="29" viewBox="0 0 144 29" fill="none" xmlns="http://www.w3.org/2000/svg">
<g clip-path="url(#clip0_377_258)">
<rect width="143.611" height="28.4" transform="translate(0.1875 0.274902)" fill="white"/>
<path d="M22.1294 12.7734C21.73 13.1768 21.4241 13.6637 21.2336 14.1994C21.043 14.7351 20.9726 15.3063 21.027 15.8726L21.008 15.8535C21.0641 16.5199 20.9746 17.1906 20.7458 17.8187C20.517 18.4469 20.1545 19.0173 19.6834 19.4902C19.2124 19.9632 18.6442 20.3272 18.0186 20.5569C17.393 20.7866 16.7249 20.8764 16.0611 20.8202L16.0801 20.8392C15.2861 20.7651 14.4886 20.9385 13.7964 21.336C13.1042 21.7335 12.5509 22.3358 12.2121 23.0605C11.8732 23.7852 11.7652 24.5973 11.9029 25.3859C12.0406 26.1745 12.4172 26.9013 12.9813 27.4672C13.5454 28.033 14.2697 28.4105 15.0553 28.548C15.8409 28.6855 16.6496 28.5763 17.3712 28.2355C18.0927 27.8946 18.692 27.3386 19.0873 26.6433C19.4826 25.9479 19.6547 25.1471 19.58 24.35L19.6001 24.369C19.544 23.7025 19.6335 23.0319 19.8623 22.4037C20.0911 21.7756 20.4537 21.2052 20.9247 20.7323C21.3958 20.2594 21.9639 19.8954 22.5895 19.6657C23.2151 19.4359 23.8832 19.3461 24.547 19.4024L24.5269 19.3833C25.1755 19.4419 25.8284 19.3351 26.4249 19.0728C27.0215 18.8106 27.5425 18.4015 27.9396 17.8833C28.3367 17.3652 28.5971 16.7547 28.6967 16.1086C28.7963 15.4625 28.7318 14.8015 28.5092 14.187C28.2867 13.5726 27.9132 13.0245 27.4234 12.5935C26.9337 12.1626 26.3435 11.8627 25.7076 11.7218C25.0717 11.5808 24.4106 11.6032 23.7857 11.7871C23.1607 11.9709 22.5921 12.3101 22.1325 12.7734H22.1294Z" fill="#282938"/>
<path d="M14.3556 18.3446L14.3355 18.3255C14.8997 18.3826 15.4695 18.3131 16.0036 18.122C16.5377 17.9309 17.0229 17.623 17.424 17.2206C17.8251 16.8182 18.1321 16.3313 18.3228 15.7952C18.5135 15.2591 18.5832 14.6871 18.5268 14.1206L18.5468 14.1397C18.4908 13.4733 18.5803 12.8025 18.8091 12.1745C19.0379 11.5464 19.4004 10.9759 19.8715 10.503C20.3425 10.03 20.9107 9.66602 21.5363 9.43631C22.1619 9.20661 22.83 9.11673 23.4937 9.17303L23.4737 9.15398C24.2677 9.22883 25.0655 9.05592 25.7581 8.65891C26.4507 8.26183 27.0044 7.65993 27.3438 6.93527C27.6832 6.21062 27.7916 5.3985 27.6544 4.60968C27.5172 3.82087 27.1409 3.09377 26.5769 2.52754C26.0129 1.96132 25.2888 1.58355 24.5031 1.44575C23.7174 1.30796 22.9085 1.41685 22.1868 1.75757C21.465 2.0983 20.8655 2.65427 20.4701 3.34965C20.0745 4.04503 19.9024 4.84597 19.9769 5.64323L19.958 5.62312C20.0142 6.2896 19.9248 6.96038 19.6961 7.58858C19.4674 8.2168 19.1047 8.78729 18.6337 9.26023C18.1627 9.73326 17.5944 10.0973 16.9687 10.3269C16.343 10.5565 15.6749 10.6462 15.0111 10.5898L15.03 10.6099C14.4659 10.5529 13.8961 10.6223 13.362 10.8135C12.8279 11.0045 12.3427 11.3124 11.9416 11.7148C11.5405 12.1172 11.2334 12.6041 11.0427 13.1402C10.852 13.6764 10.7823 14.2483 10.8388 14.8148L10.8198 14.7957C10.8757 15.4621 10.786 16.1327 10.5571 16.7608C10.3283 17.3888 9.96574 17.9592 9.49475 18.432C9.02375 18.905 8.45567 19.269 7.83014 19.4987C7.20459 19.7285 6.53666 19.8185 5.87292 19.7624L5.89189 19.7814C5.09781 19.7066 4.30007 19.8795 3.60745 20.2765C2.91484 20.6736 2.36109 21.2755 2.02172 22.0001C1.68236 22.7248 1.5739 23.5369 1.71115 24.3258C1.84839 25.1145 2.22466 25.8417 2.78862 26.4079C3.35259 26.9742 4.0768 27.3519 4.86246 27.4897C5.64813 27.6274 6.45702 27.5186 7.17878 27.1779C7.90055 26.8372 8.50006 26.2812 8.8955 25.5858C9.29102 24.8904 9.46319 24.0895 9.38862 23.2922L9.40866 23.3112C9.35264 22.6448 9.44214 21.9741 9.67092 21.346C9.8997 20.7179 10.2623 20.1475 10.7333 19.6745C11.2044 19.2016 11.7725 18.8375 12.3981 18.6078C13.0237 18.3781 13.6918 18.2883 14.3556 18.3446Z" fill="#282938"/>
<path d="M7.29176 16.2212C7.69121 15.8179 7.99702 15.331 8.1874 14.7952C8.37777 14.2594 8.448 13.6882 8.39306 13.122L8.41309 13.1411C8.35701 12.4744 8.44655 11.8036 8.67543 11.1753C8.90437 10.547 9.26715 9.97647 9.7384 9.50344C10.2096 9.0305 10.7781 8.66656 11.404 8.437C12.0299 8.20744 12.6981 8.11783 13.3621 8.17441L13.342 8.15536C14.1358 8.23002 14.9333 8.05704 15.6255 7.66001C16.3179 7.26297 16.8714 6.66121 17.2105 5.93678C17.5497 5.21235 17.658 4.40053 17.5208 3.61201C17.3835 2.82349 17.0074 2.09667 16.4436 1.53065C15.8799 0.964632 15.156 0.586979 14.3705 0.44919C13.5852 0.311402 12.7766 0.420185 12.055 0.760704C11.3335 1.10122 10.7342 1.6569 10.3386 2.35196C9.94321 3.04702 9.77096 3.84763 9.84527 4.64461L9.82632 4.62557C9.88234 5.29201 9.79284 5.9627 9.56406 6.59082C9.33529 7.21895 8.97275 7.78938 8.50168 8.2623C8.03065 8.73522 7.46249 9.09925 6.83686 9.32895C6.21125 9.55866 5.54323 9.64854 4.87945 9.59224L4.89842 9.61128C4.24983 9.55289 3.59706 9.65981 3.00059 9.92218C2.40411 10.1845 1.88324 10.5937 1.48624 11.112C1.08923 11.6302 0.828935 12.2406 0.729475 12.8867C0.630015 13.5329 0.694606 14.1938 0.917263 14.8081C1.13992 15.4225 1.51344 15.9705 2.00321 16.4014C2.49297 16.8323 3.08314 17.1321 3.71903 17.273C4.35491 17.4139 5.01593 17.3914 5.64084 17.2075C6.26574 17.0237 6.83432 16.6844 7.29387 16.2212H7.29176Z" fill="#282938"/>
<path d="M39.937 5.66748H43.0671V20.9601H39.937V5.66748Z" fill="#282938"/>
<path d="M44.84 15.7242C44.8356 14.6252 45.1562 13.5497 45.7611 12.6338C46.366 11.7179 47.2281 11.0028 48.2382 10.5792C49.2482 10.1555 50.3607 10.0424 51.4348 10.2542C52.5089 10.4658 53.4963 10.9928 54.2718 11.7684C55.0474 12.5439 55.5763 13.5331 55.7914 14.6106C56.0066 15.6882 55.8984 16.8056 55.4805 17.8213C55.0626 18.8371 54.3539 19.7055 53.444 20.3165C52.5342 20.9276 51.4642 21.2537 50.3697 21.2537C49.643 21.2621 48.9221 21.1249 48.2489 20.8502C47.5757 20.5756 46.9639 20.1689 46.4489 19.6541C45.9341 19.1393 45.5267 18.5266 45.2504 17.8517C44.9741 17.177 44.8346 16.4537 44.84 15.7242ZM52.7693 15.7242C52.7563 15.2505 52.6044 14.7911 52.3327 14.4036C52.0611 14.0161 51.6817 13.7175 51.242 13.5453C50.8023 13.3731 50.3218 13.3348 49.8605 13.4353C49.3992 13.5358 48.9777 13.7706 48.6486 14.1102C48.3195 14.4499 48.0975 14.8795 48.0101 15.3452C47.9229 15.811 47.9743 16.2922 48.158 16.7287C48.3416 17.1652 48.6494 17.5378 49.0428 17.7996C49.4361 18.0615 49.8977 18.2012 50.3697 18.2012C50.6929 18.2098 51.0144 18.1512 51.3139 18.0288C51.6135 17.9065 51.8845 17.7232 52.11 17.4905C52.3355 17.2578 52.5104 16.9807 52.624 16.6767C52.7374 16.3727 52.7869 16.0483 52.7693 15.7242Z" fill="#282938"/>
<path d="M68.3744 10.486V20.4321C68.3744 23.9513 65.6407 25.439 62.8658 25.439C61.8888 25.5124 60.9105 25.3143 60.0383 24.8663C59.1661 24.4183 58.4335 23.7379 57.921 22.8995L60.5915 21.3495C60.8069 21.7864 61.1502 22.147 61.5752 22.3827C62.0003 22.6185 62.487 22.7184 62.9701 22.6689C63.2789 22.7118 63.5934 22.6845 63.8902 22.589C64.187 22.4935 64.4587 22.3321 64.6851 22.1169C64.9114 21.9018 65.0868 21.6382 65.198 21.3459C65.3092 21.0535 65.3535 20.7397 65.3277 20.4278V19.4703C64.9611 19.9205 64.4946 20.2783 63.9655 20.5148C63.4364 20.7512 62.8594 20.8599 62.2809 20.832C60.9043 20.7885 59.5987 20.2088 58.6403 19.2157C57.6819 18.2227 57.146 16.8942 57.146 15.5114C57.146 14.1287 57.6819 12.8002 58.6403 11.8071C59.5987 10.8141 60.9043 10.2344 62.2809 10.1908C62.8594 10.163 63.4364 10.2716 63.9655 10.5081C64.4946 10.7446 64.9611 11.1023 65.3277 11.5526V10.4839L68.3744 10.486ZM65.3287 15.513C65.3498 15.0066 65.2194 14.5054 64.9543 14.074C64.6892 13.6426 64.3016 13.3007 63.8414 13.0923C63.3811 12.8839 62.8693 12.8186 62.3718 12.9047C61.8743 12.9909 61.4138 13.2245 61.0496 13.5756C60.6855 13.9267 60.4344 14.3792 60.3285 14.8748C60.2227 15.3704 60.267 15.8865 60.4557 16.3567C60.6445 16.8268 60.9691 17.2294 61.3877 17.5128C61.8063 17.7961 62.2998 17.9472 62.8047 17.9467C63.1335 17.9696 63.4635 17.9233 63.7735 17.8105C64.0834 17.6977 64.3664 17.521 64.6042 17.2918C64.842 17.0625 65.0292 16.7858 65.1541 16.4794C65.2788 16.1731 65.3383 15.8439 65.3287 15.513Z" fill="#282938"/>
<path d="M70.1466 15.7242C70.1423 14.6252 70.4628 13.5497 71.0678 12.6338C71.6728 11.7179 72.5348 11.0028 73.5449 10.5792C74.5549 10.1555 75.6674 10.0424 76.7415 10.2542C77.8156 10.4658 78.803 10.9928 79.5785 11.7684C80.3541 12.5439 80.883 13.5331 81.0981 14.6106C81.3133 15.6882 81.2051 16.8056 80.7872 17.8213C80.3693 18.8371 79.6606 19.7055 78.7508 20.3165C77.8409 20.9276 76.7709 21.2537 75.6763 21.2537C74.9498 21.2621 74.2288 21.1249 73.5556 20.8502C72.8824 20.5756 72.2705 20.1689 71.7557 19.6541C71.2408 19.1393 70.8334 18.5266 70.5571 17.8517C70.2808 17.177 70.1413 16.4537 70.1466 15.7242ZM78.076 15.7242C78.0629 15.2505 77.9111 14.7911 77.6395 14.4036C77.3678 14.0161 76.9884 13.7175 76.5487 13.5453C76.109 13.3731 75.6284 13.3348 75.1672 13.4353C74.7059 13.5358 74.2844 13.7706 73.9552 14.1102C73.6262 14.4499 73.4041 14.8795 73.3168 15.3452C73.2296 15.811 73.281 16.2922 73.4646 16.7287C73.6483 17.1652 73.9561 17.5378 74.3494 17.7996C74.7429 18.0615 75.2043 18.2012 75.6763 18.2012C75.9996 18.2098 76.3212 18.1512 76.6206 18.0288C76.9202 17.9065 77.1913 17.7232 77.4167 17.4905C77.6421 17.2578 77.8171 16.9807 77.9306 16.6767C78.0441 16.3727 78.0936 16.0483 78.076 15.7242Z" fill="#282938"/>
<path d="M82.666 7.67874C82.666 7.30582 82.7761 6.94127 82.9825 6.6312C83.1889 6.32112 83.4822 6.07945 83.8256 5.93674C84.1687 5.79403 84.5461 5.75669 84.9102 5.82944C85.2751 5.9022 85.609 6.08178 85.872 6.34547C86.1342 6.60917 86.3137 6.94513 86.3855 7.31089C86.4582 7.67664 86.4214 8.05576 86.2787 8.40029C86.1367 8.74485 85.8963 9.0393 85.5873 9.24645C85.2784 9.45369 84.9152 9.56428 84.5436 9.56428C84.0477 9.55927 83.5727 9.35905 83.2215 9.00655C82.8704 8.65398 82.6709 8.17726 82.666 7.67874ZM82.9822 10.4859H86.1133V20.9609H82.9779L82.9822 10.4859Z" fill="#282938"/>
<path d="M99.6279 15.724C99.6638 16.4163 99.5636 17.1089 99.3323 17.762C99.101 18.4152 98.7428 19.016 98.2794 19.5299C97.816 20.0438 97.2558 20.4606 96.6321 20.7564C96.0075 21.0522 95.3304 21.2211 94.6407 21.2535C94.0613 21.2853 93.481 21.1871 92.9433 20.966C92.4064 20.7449 91.9238 20.4066 91.5331 19.9754V25.1505H88.4028V10.4864H91.5331V11.4704C91.9246 11.0396 92.4064 10.7014 92.9441 10.4806C93.481 10.2597 94.0613 10.1616 94.6407 10.1933C95.3304 10.2256 96.0075 10.3945 96.6321 10.6903C97.2566 10.9861 97.8169 11.403 98.2803 11.917C98.7437 12.4311 99.1019 13.0321 99.3331 13.6854C99.5644 14.3387 99.6646 15.0315 99.6279 15.724ZM96.4977 15.724C96.486 15.2337 96.3298 14.758 96.0493 14.3563C95.7696 13.9547 95.3772 13.6449 94.9229 13.4658C94.4679 13.2866 93.9703 13.2462 93.4935 13.3493C93.0159 13.4526 92.5792 13.6949 92.2378 14.046C91.8971 14.397 91.6666 14.8413 91.5756 15.3232C91.4855 15.8051 91.5381 16.3031 91.7276 16.755C91.918 17.2068 92.2361 17.5925 92.6427 17.8636C93.0502 18.1347 93.5277 18.2793 94.0162 18.2792C94.351 18.2943 94.6858 18.2379 94.9981 18.1139C95.3104 17.9899 95.5926 17.8011 95.8272 17.5598C96.0618 17.3186 96.2422 17.0303 96.3582 16.7139C96.4734 16.3975 96.521 16.0602 96.4977 15.724Z" fill="#282938"/>
<path d="M109.285 17.8179C109.285 20.2271 107.2 21.2535 104.947 21.2535C104.037 21.3363 103.123 21.143 102.323 20.6985C101.523 20.2542 100.874 19.5791 100.461 18.7606L103.172 17.2105C103.282 17.5888 103.518 17.9179 103.84 18.1429C104.162 18.3677 104.551 18.4749 104.943 18.4463C105.694 18.4463 106.069 18.2157 106.069 17.7977C106.069 16.6444 100.936 17.2529 100.936 13.6289C100.936 11.3444 102.856 10.1932 105.026 10.1932C105.842 10.1673 106.65 10.3616 107.365 10.7558C108.081 11.15 108.678 11.7296 109.094 12.4343L106.423 13.8796C106.306 13.6052 106.111 13.3716 105.863 13.2077C105.614 13.0438 105.324 12.9569 105.026 12.958C104.484 12.958 104.149 13.1696 104.149 13.5442C104.153 14.7388 109.285 13.9421 109.285 17.8179Z" fill="#282938"/>
<path d="M120.721 10.4863V20.9614H117.591V19.9764C117.23 20.411 116.772 20.7535 116.253 20.9757C115.735 21.1979 115.171 21.2934 114.608 21.2545C112.501 21.2545 110.709 19.7467 110.709 16.9163V10.4863H113.839V16.4561C113.813 16.7056 113.841 16.9578 113.922 17.1952C114.003 17.4325 114.134 17.6495 114.307 17.8307C114.48 18.012 114.689 18.1533 114.922 18.2448C115.155 18.3363 115.405 18.3758 115.654 18.3606C116.802 18.3606 117.594 17.6909 117.594 16.2032V10.4895L120.721 10.4863Z" fill="#282938"/>
<path d="M138.668 14.5296V20.9607H135.538V14.8016C135.538 13.7541 135.037 13.0843 134.036 13.0843C132.993 13.0843 132.408 13.8175 132.408 15.0534V20.9607H129.279V14.8016C129.279 13.7541 128.778 13.0843 127.776 13.0843C126.732 13.0843 126.149 13.8175 126.149 15.0534V20.9607H123.019V10.4856H126.149V11.4485C126.474 11.0213 126.899 10.6826 127.388 10.4632C127.876 10.2438 128.411 10.1508 128.945 10.1925C129.48 10.1662 130.014 10.2797 130.492 10.5219C130.971 10.764 131.38 11.1267 131.678 11.5744C132.024 11.106 132.484 10.7336 133.013 10.4919C133.542 10.2503 134.123 10.1473 134.703 10.1925C137.098 10.1936 138.668 11.9109 138.668 14.5296Z" fill="#282938"/>
<path d="M141.316 10.4219C142.598 10.4219 143.638 9.37783 143.638 8.08984C143.638 6.8019 142.598 5.75781 141.316 5.75781C140.033 5.75781 138.993 6.8019 138.993 8.08984C138.993 9.37783 140.033 10.4219 141.316 10.4219Z" fill="#282938"/>
</g>
<defs>
<clipPath id="clip0_377_258">
<rect width="143.611" height="28.4" fill="white" transform="translate(0.1875 0.274902)"/>
</clipPath>
</defs>
</svg>
