<svg width="122" height="29" viewBox="0 0 122 29" fill="none" xmlns="http://www.w3.org/2000/svg">
<g clip-path="url(#clip0_377_299)">
<rect width="121.023" height="28.4" transform="translate(0.976562 0.274902)" fill="white"/>
<path d="M35.6816 9.06082H38.7247V21.3681H35.6816V9.06082ZM39.9382 16.7387C39.9382 13.6902 41.8341 11.8631 44.6781 11.8631C47.5221 11.8631 49.4181 13.6902 49.4181 16.7387C49.4181 19.7871 47.5885 21.6332 44.6781 21.6332C41.7678 21.6332 39.9382 19.8533 39.9382 16.7387ZM46.4035 16.7387C46.4035 15.063 45.7494 14.0784 44.7066 14.0784C43.6637 14.0784 43.0191 15.0251 43.0191 16.7387C43.0191 18.4522 43.6637 19.3895 44.7066 19.3895C45.7494 19.3895 46.4224 18.4523 46.4224 16.7481L46.4035 16.7387ZM50.6315 22.0024H53.5703C53.7041 22.3184 53.9378 22.5819 54.2357 22.7528C54.5334 22.9238 54.8792 22.9927 55.2199 22.9491C56.3859 22.9491 56.9926 22.3243 56.9926 21.3965V19.6924H57.0021C56.751 20.2231 56.3449 20.6653 55.8373 20.961C55.3296 21.2568 54.7443 21.392 54.1581 21.3491C51.9303 21.3491 50.4514 19.6545 50.4514 16.7387C50.4514 13.8228 51.864 12.0051 54.2434 12.0051C54.8446 11.9729 55.4409 12.1278 55.9502 12.4483C56.4596 12.7687 56.8569 13.2391 57.0874 13.7944H57.0021V12.0809H60.0168V21.3018C60.0168 23.5266 58.0449 24.9183 55.144 24.9183C52.5086 24.9088 50.8212 23.7065 50.6505 22.0119L50.6315 22.0024ZM57.0021 16.7387C57.0021 15.2523 56.3196 14.315 55.2388 14.315C54.1581 14.315 53.4945 15.2618 53.4945 16.7387C53.4945 18.2156 54.1486 19.0865 55.2388 19.0865C56.3291 19.0865 57.0021 18.2818 57.0021 16.7387ZM61.2207 16.7387C61.2207 13.6902 63.1167 11.8631 65.9607 11.8631C68.8047 11.8631 70.7007 13.6902 70.7007 16.7387C70.7007 19.7871 68.8616 21.6332 65.9607 21.6332C63.0598 21.6332 61.2396 19.8533 61.2396 16.7387H61.2207ZM67.6861 16.7387C67.6861 15.063 67.0225 14.0784 65.9891 14.0784C64.9558 14.0784 64.3017 15.0251 64.3017 16.7387C64.3017 18.4522 64.9463 19.3895 65.9891 19.3895C67.0319 19.3895 67.705 18.4523 67.705 16.7481L67.6861 16.7387ZM71.9331 9.83712C71.9199 9.52756 71.9997 9.22113 72.1622 8.95724C72.3249 8.69334 72.5628 8.48408 72.8454 8.35635C73.1281 8.22863 73.4425 8.18827 73.7484 8.24044C74.0542 8.29268 74.3374 8.43505 74.5616 8.64932C74.7857 8.86359 74.9405 9.1399 75.006 9.44273C75.0716 9.74556 75.0449 10.0611 74.9294 10.3487C74.814 10.6363 74.615 10.8828 74.3581 11.0565C74.1011 11.2302 73.7981 11.3232 73.4878 11.3235C73.2895 11.3285 73.0922 11.2942 72.9073 11.2224C72.7224 11.1507 72.5537 11.043 72.4108 10.9056C72.2679 10.7682 72.1538 10.6038 72.075 10.4221C71.9963 10.2402 71.9545 10.0447 71.9521 9.84661L71.9331 9.83712ZM71.9331 12.0714H75.0141V21.4059H71.9805L71.9331 12.0714ZM86.0961 16.7387C86.0961 19.7776 84.7312 21.5385 82.4086 21.5385C81.8139 21.5751 81.2222 21.4286 80.7135 21.1188C80.2048 20.809 79.8043 20.3508 79.5645 19.806H79.5078V24.4071H76.4642V12.0998H79.4883V13.766H79.5458C79.7767 13.2105 80.1741 12.7397 80.6829 12.4179C81.1916 12.096 81.7878 11.9386 82.3892 11.9673C84.7782 11.9483 86.1528 13.6997 86.1528 16.7481L86.0961 16.7387ZM82.9965 16.7387C82.9965 15.2618 82.304 14.3056 81.2327 14.3056C80.1614 14.3056 79.4883 15.2523 79.4794 16.7387C79.4697 18.225 80.1614 19.1623 81.2327 19.1623C82.304 19.1623 83.0533 18.2818 83.0533 16.7481L82.9965 16.7387ZM91.2911 11.8536C93.8416 11.8536 95.4246 13.056 95.4433 14.9872H92.6657C92.6657 14.315 92.1069 13.8985 91.2724 13.8985C90.438 13.8985 90.0398 14.2204 90.0398 14.7032C90.0398 15.186 90.3909 15.3375 91.0924 15.4795L93.0452 15.8771C94.9412 16.2748 95.6995 17.0322 95.6995 18.4428C95.6995 20.3361 93.9454 21.6237 91.3389 21.6237C88.7317 21.6237 87.0344 20.374 86.9118 18.4712H89.8597C89.9449 19.1623 90.4947 19.5693 91.386 19.5693C92.2772 19.5693 92.6941 19.2853 92.6941 18.7836C92.6941 18.2818 92.4102 18.1966 91.6796 18.0452L89.9165 17.6759C88.087 17.2878 87.1292 16.3316 87.1292 14.902C87.1868 13.0465 88.7787 11.8631 91.3479 11.8631L91.2911 11.8536ZM105.89 21.3965H102.942V19.6451H102.885C102.72 20.2293 102.361 20.7399 101.866 21.0926C101.372 21.4455 100.771 21.6194 100.165 21.5858C99.706 21.6008 99.2503 21.5187 98.8259 21.3452C98.4016 21.1716 98.0191 20.9103 97.7031 20.5787C97.3871 20.247 97.1451 19.8524 96.9927 19.4206C96.8395 18.9889 96.7805 18.5298 96.8178 18.0736V12.0809H99.8614V17.4203C99.8614 18.5185 100.44 19.1149 101.388 19.1149C101.61 19.1132 101.829 19.064 102.031 18.9703C102.233 18.8767 102.412 18.741 102.557 18.5723C102.701 18.4035 102.808 18.2058 102.87 17.9924C102.931 17.779 102.946 17.5548 102.914 17.3351V12.0809H105.948L105.89 21.3965ZM107.36 12.0714H110.318V13.8701H110.384C110.547 13.2939 110.898 12.788 111.38 12.4318C111.861 12.0754 112.449 11.8888 113.048 11.901C113.65 11.8487 114.25 12.0225 114.73 12.3885C115.21 12.7544 115.537 13.2861 115.645 13.8796H115.778C115.967 13.2829 116.349 12.7655 116.864 12.4076C117.378 12.0498 117.996 11.8717 118.622 11.901C119.038 11.8851 119.453 11.9573 119.839 12.1126C120.225 12.2679 120.575 12.503 120.863 12.8024C121.153 13.1018 121.375 13.4587 121.516 13.85C121.658 14.2411 121.715 14.6577 121.684 15.0724V21.4059H118.622V15.8487C118.622 14.902 118.176 14.3718 117.314 14.3718C117.122 14.3687 116.932 14.407 116.758 14.484C116.583 14.5609 116.426 14.6748 116.299 14.8177C116.172 14.9607 116.078 15.1294 116.022 15.3123C115.966 15.4951 115.952 15.6878 115.977 15.8771V21.4059H113.076V15.8203C113.076 14.8736 112.611 14.3718 111.778 14.3718C111.584 14.3704 111.393 14.4101 111.216 14.4886C111.04 14.567 110.881 14.6822 110.753 14.8266C110.625 14.971 110.529 15.1411 110.472 15.3256C110.414 15.51 110.398 15.7046 110.422 15.8961V21.4059H107.379L107.36 12.0714Z" fill="#282938"/>
<path d="M29.6632 9.86546C29.6632 7.98119 29.0935 6.14086 28.0285 4.58546C26.9634 3.03006 25.4529 1.83215 23.6946 1.14862C21.9363 0.465085 20.0123 0.32781 18.1746 0.75477C16.3368 1.18173 14.6711 2.15302 13.3954 3.54141H1.56445V28.4778H26.5442V16.8238C27.5246 15.9481 28.3092 14.8757 28.8466 13.6767C29.384 12.4777 29.6623 11.1791 29.6632 9.86546ZM24.8568 9.86546C24.8587 10.7684 24.5923 11.6515 24.0913 12.4032C23.5904 13.1549 22.8774 13.7412 22.0426 14.088C21.2079 14.4349 20.2888 14.5266 19.4018 14.3515C18.5148 14.1766 17.6998 13.7427 17.0598 13.1049C16.4198 12.4671 15.9836 11.6541 15.8066 10.7687C15.6295 9.88325 15.7195 8.96525 16.065 8.13089C16.4106 7.29651 16.9962 6.58329 17.7479 6.08146C18.4995 5.57964 19.3833 5.31177 20.2874 5.31177C21.4977 5.31177 22.6584 5.79122 23.5151 6.64494C24.3717 7.49865 24.8543 8.65689 24.8568 9.86546ZM21.7378 23.678H6.37081V8.34128H11.0539C10.9635 8.8444 10.9159 9.35426 10.9117 9.86546C10.9142 12.3479 11.9028 14.728 13.6606 16.4833C15.4183 18.2387 17.8016 19.226 20.2874 19.2285C20.7734 19.2259 21.2584 19.1848 21.7378 19.1054V23.678Z" fill="#282938"/>
</g>
<defs>
<clipPath id="clip0_377_299">
<rect width="121.023" height="28.4" fill="white" transform="translate(0.976562 0.274902)"/>
</clipPath>
</defs>
</svg>
