<svg width="29" height="26" viewBox="0 0 29 26" fill="none" xmlns="http://www.w3.org/2000/svg">
<path d="M14.3624 9.79325C17.0275 9.79325 19.1881 7.60096 19.1881 4.89663C19.1881 2.19229 17.0275 0 14.3624 0C11.6972 0 9.53662 2.19229 9.53662 4.89663C9.53662 7.60096 11.6972 9.79325 14.3624 9.79325Z" fill="#FF7800"/>
<path d="M24.125 9.79343C25.8099 9.79343 27.1757 8.4075 27.1757 6.69786C27.1757 4.98823 25.8099 3.60229 24.125 3.60229C22.4401 3.60229 21.0742 4.98823 21.0742 6.69786C21.0742 8.4075 22.4401 9.79343 24.125 9.79343Z" fill="#FF7800"/>
<path d="M4.60007 9.79343C6.28496 9.79343 7.65082 8.4075 7.65082 6.69786C7.65082 4.98823 6.28496 3.60229 4.60007 3.60229C2.91519 3.60229 1.54932 4.98823 1.54932 6.69786C1.54932 8.4075 2.91519 9.79343 4.60007 9.79343Z" fill="#FF7800"/>
<path d="M7.60588 12.5729C6.405 11.5746 5.31743 11.7067 3.92889 11.7067C1.85216 11.7067 0.162598 13.411 0.162598 15.5053V21.6519C0.162598 22.5615 0.894224 23.301 1.79392 23.301C5.67814 23.301 5.21021 23.3723 5.21021 23.1311C5.21021 18.7755 4.70179 15.5814 7.60588 12.5729Z" fill="#FF7800"/>
<path d="M15.6832 11.7295C13.258 11.5242 11.1499 11.7319 9.33158 13.2548C6.28875 15.7278 6.87433 19.0577 6.87433 23.1313C6.87433 24.2091 7.73853 25.1024 8.81683 25.1024C20.5252 25.1024 20.9912 25.4856 21.6855 23.9255C21.9132 23.3979 21.8508 23.5655 21.8508 18.5184C21.8508 14.5095 18.4299 11.7295 15.6832 11.7295Z" fill="#FF7800"/>
<path d="M24.7961 11.7073C23.4 11.7073 22.3184 11.5765 21.1191 12.5735C24.0015 15.5597 23.5148 18.5359 23.5148 23.1316C23.5148 23.3744 23.1264 23.3016 26.8729 23.3016C27.8047 23.3016 28.5624 22.5356 28.5624 21.594V15.5059C28.5624 13.4116 26.8729 11.7073 24.7961 11.7073Z" fill="#FF7800"/>
</svg>
