<svg width="122" height="29" viewBox="0 0 122 29" fill="none" xmlns="http://www.w3.org/2000/svg">
<g clip-path="url(#clip0_377_272)">
<rect width="120.832" height="28.4" transform="translate(0.243652 0.274902)" fill="white"/>
<path d="M29.5039 7.20239H32.275V20.6586H29.5039V7.20239Z" fill="#282938"/>
<path d="M33.8266 16.0495C33.8266 15.0813 34.1117 14.135 34.6458 13.3304C35.1799 12.5259 35.9389 11.8993 36.8267 11.5301C37.7143 11.1609 38.6908 11.0657 39.6323 11.2567C40.5737 11.4476 41.4377 11.916 42.1148 12.6025C42.7919 13.289 43.2516 14.1628 43.4355 15.1129C43.6195 16.0632 43.5195 17.047 43.1482 17.9398C42.7769 18.8327 42.1511 19.5942 41.3499 20.1281C40.5488 20.6619 39.6086 20.944 38.6482 20.9384C38.0113 20.9435 37.3799 20.8202 36.7908 20.5759C36.2018 20.3317 35.667 19.9713 35.2179 19.516C34.7688 19.0606 34.4144 18.5194 34.1755 17.9242C33.9366 17.3289 33.818 16.6915 33.8266 16.0495ZM40.7728 16.0495C40.7619 15.6322 40.6292 15.2273 40.3912 14.8855C40.1533 14.5438 39.8207 14.2804 39.435 14.1282C39.0493 13.9761 38.6278 13.9419 38.2229 14.03C37.8181 14.1181 37.4481 14.3247 37.1591 14.6237C36.8701 14.9227 36.6749 15.301 36.598 15.7113C36.5212 16.1215 36.566 16.5455 36.7269 16.9303C36.8878 17.315 37.1576 17.6433 37.5027 17.8742C37.8477 18.1052 38.2526 18.2284 38.6667 18.2286C38.9487 18.2341 39.2287 18.1809 39.4894 18.0724C39.7501 17.9639 39.9858 17.8024 40.1817 17.5978C40.3776 17.3933 40.5296 17.1502 40.6281 16.8839C40.7266 16.6174 40.7696 16.3334 40.7543 16.0495H40.7728Z" fill="#282938"/>
<path d="M54.4335 11.4403V20.2031C54.4335 23.2947 52.0319 24.6077 49.6026 24.6077C48.7457 24.6787 47.8862 24.507 47.1208 24.1122C46.3554 23.7173 45.7147 23.1149 45.2704 22.3728L47.6074 21.0133C47.7968 21.3982 48.098 21.7158 48.4709 21.9237C48.8439 22.1317 49.2708 22.2201 49.6949 22.1773C49.965 22.2108 50.2392 22.1838 50.4978 22.0981C50.7564 22.0124 50.993 21.8701 51.1907 21.6815C51.3884 21.4928 51.5423 21.2625 51.6414 21.0069C51.7405 20.7513 51.7824 20.4769 51.764 20.2031V19.3556C51.4415 19.7498 51.0324 20.0628 50.569 20.2697C50.1056 20.4766 49.6007 20.5717 49.0945 20.5476C47.8696 20.5476 46.6949 20.057 45.8288 19.1839C44.9627 18.3107 44.4761 17.1264 44.4761 15.8915C44.4761 14.6566 44.9627 13.4723 45.8288 12.5991C46.6949 11.7259 47.8696 11.2354 49.0945 11.2354C49.6007 11.2112 50.1056 11.3064 50.569 11.5133C51.0324 11.7202 51.4415 12.0332 51.764 12.4273V11.4961L54.4335 11.4403ZM51.764 15.8635C51.7824 15.418 51.6683 14.9772 51.4361 14.5975C51.204 14.218 50.8646 13.9171 50.4615 13.7335C50.0584 13.55 49.61 13.4923 49.174 13.5677C48.7382 13.6432 48.3345 13.8483 48.0152 14.1568C47.6959 14.4654 47.4754 14.8631 47.3821 15.299C47.2888 15.7349 47.327 16.189 47.4917 16.6028C47.6564 17.0166 47.9402 17.3714 48.3064 17.6213C48.6727 17.8712 49.1048 18.005 49.5472 18.0054C49.8358 18.0263 50.1255 17.986 50.3977 17.8871C50.6699 17.7881 50.9185 17.6327 51.1274 17.4308C51.3363 17.229 51.5009 16.9853 51.6106 16.7152C51.7202 16.4453 51.7725 16.1552 51.764 15.8635Z" fill="#282938"/>
<path d="M55.995 16.0496C55.995 15.0822 56.2796 14.1366 56.8128 13.3325C57.3461 12.5283 58.1041 11.9016 58.9906 11.5319C59.8773 11.1621 60.8528 11.0659 61.7938 11.2553C62.7347 11.4447 63.5988 11.9112 64.2766 12.5959C64.9544 13.2806 65.4156 14.1525 65.6016 15.1015C65.7877 16.0505 65.6903 17.0337 65.3219 17.9269C64.9534 18.8201 64.3305 19.583 63.5317 20.1191C62.7331 20.6552 61.7946 20.9403 60.8351 20.9385C60.1969 20.9447 59.564 20.8224 58.9734 20.5789C58.3828 20.3353 57.8463 19.9752 57.3955 19.5199C56.9447 19.0645 56.5886 18.5231 56.3481 17.9271C56.1076 17.3312 55.9875 16.6929 55.995 16.0496ZM62.9411 16.0496C62.9302 15.6318 62.7972 15.2265 62.5589 14.8847C62.3205 14.5428 61.9873 14.2793 61.6012 14.1275C61.215 13.9756 60.7929 13.942 60.3879 14.0308C59.9828 14.1197 59.6129 14.3271 59.3242 14.6271C59.0356 14.927 58.8411 15.3062 58.7654 15.7171C58.6895 16.1279 58.7357 16.5522 58.8979 16.9368C59.0602 17.3213 59.3315 17.6491 59.6777 17.8788C60.024 18.1086 60.4298 18.2303 60.8443 18.2286C61.1263 18.2342 61.4063 18.181 61.667 18.0725C61.9277 17.9639 62.1634 17.8024 62.3592 17.5979C62.5552 17.3934 62.7072 17.1503 62.8057 16.8839C62.9042 16.6175 62.9472 16.3335 62.9319 16.0496H62.9411Z" fill="#282938"/>
<path d="M66.959 8.97176C66.959 8.64392 67.0554 8.32351 67.2361 8.05087C67.4168 7.7783 67.6736 7.56581 67.974 7.44038C68.2744 7.31493 68.605 7.2821 68.9239 7.34606C69.2429 7.41002 69.5358 7.56792 69.7658 7.79971C69.9957 8.0315 70.1523 8.32686 70.2158 8.64843C70.2792 8.96994 70.2466 9.30323 70.1222 9.6061C69.9977 9.90903 69.787 10.1679 69.5166 10.35C69.2462 10.5322 68.9283 10.6294 68.6032 10.6294C68.1686 10.6246 67.7532 10.4483 67.4459 10.1385C67.1386 9.82871 66.9638 9.40992 66.959 8.97176ZM67.2269 11.4396H69.9979V20.6586H67.2269V11.4396Z" fill="#282938"/>
<path d="M81.8588 16.0491C81.8901 16.6623 81.8006 17.2756 81.5953 17.8536C81.3908 18.4317 81.0741 18.9633 80.6643 19.4177C80.2553 19.8721 79.7603 20.2403 79.2093 20.5012C78.6582 20.7622 78.0614 20.9106 77.4528 20.9381C76.9367 20.9727 76.4192 20.8894 75.9395 20.6943C75.4598 20.4991 75.0296 20.1973 74.6817 19.8113V24.365H71.9106V11.4396H74.6817V12.3056C75.0304 11.9208 75.4606 11.6203 75.9402 11.4268C76.4199 11.2333 76.9375 11.1517 77.4528 11.1881C78.0584 11.2157 78.6531 11.3632 79.2027 11.6224C79.7523 11.8816 80.2451 12.2473 80.6541 12.6987C81.0632 13.1501 81.3806 13.6783 81.5873 14.2532C81.794 14.8281 81.8858 15.4383 81.8588 16.0491ZM79.0877 16.0491C79.0768 15.6166 78.9392 15.197 78.6932 14.8429C78.4464 14.4887 78.1021 14.2157 77.7025 14.0582C77.3022 13.9007 76.8654 13.8656 76.4461 13.9574C76.0269 14.0491 75.6433 14.2636 75.3448 14.574C75.0457 14.8844 74.844 15.2769 74.7654 15.7021C74.6868 16.1275 74.7341 16.5667 74.9023 16.9649C75.0704 17.363 75.3506 17.7024 75.7095 17.9404C76.0676 18.1784 76.4876 18.3044 76.9171 18.3027C77.2112 18.3153 77.5045 18.2651 77.7775 18.1554C78.0512 18.0457 78.2979 17.879 78.5032 17.6662C78.7085 17.4534 78.8664 17.1993 78.9669 16.9206C79.0673 16.642 79.1088 16.345 79.0877 16.0491Z" fill="#282938"/>
<path d="M90.2913 17.8929C90.2913 20.0162 88.4439 20.9194 86.4858 20.9194C85.6873 20.9919 84.8852 20.8212 84.1835 20.4294C83.4825 20.0376 82.9133 19.4428 82.5508 18.7217L84.9339 17.3621C85.0286 17.6944 85.2331 17.984 85.5141 18.1822C85.795 18.3806 86.1343 18.4757 86.4764 18.4517C87.1322 18.4517 87.4649 18.2468 87.4649 17.8743C87.4649 16.8593 82.9664 17.3994 82.9664 14.2053C82.9664 12.1938 84.6479 11.1881 86.5506 11.1881C87.2742 11.1555 87.9926 11.3209 88.6302 11.6668C89.2672 12.0128 89.8 12.5263 90.1712 13.153L87.788 14.4195C87.6832 14.1792 87.5107 13.9749 87.2931 13.8311C87.0747 13.6873 86.8199 13.6103 86.5601 13.6093C86.0797 13.6093 85.7929 13.7955 85.7929 14.1215C85.7929 15.1831 90.2913 14.4846 90.2913 17.8929Z" fill="#282938"/>
<path d="M100.333 11.4397V20.6588H97.5614V19.7928C97.2463 20.1761 96.8466 20.4796 96.3939 20.6785C95.9419 20.8775 95.4491 20.9664 94.9563 20.9382C93.1088 20.9382 91.5293 19.6066 91.5293 17.1202V11.4397H94.3004V16.7011C94.2786 16.9211 94.3048 17.1432 94.3761 17.3521C94.4482 17.5611 94.5639 17.7518 94.7153 17.9111C94.8675 18.0705 95.0524 18.1947 95.2562 18.2752C95.4607 18.3558 95.6798 18.3906 95.8982 18.3773C96.8961 18.3773 97.5978 17.7813 97.5978 16.5149V11.4397H100.333Z" fill="#282938"/>
<path d="M116.034 14.9972V20.659H113.263V15.2393C113.263 14.3081 112.829 13.7307 111.951 13.7307C111.074 13.7307 110.52 14.3732 110.52 15.4628V20.659H107.748V15.2393C107.748 14.3081 107.315 13.7307 106.437 13.7307C105.56 13.7307 105.005 14.3732 105.005 15.4628V20.659H102.234V11.4399H105.005V12.2873C105.292 11.9129 105.667 11.6165 106.096 11.4246C106.525 11.2328 106.994 11.1516 107.462 11.1884C107.93 11.1638 108.398 11.2625 108.817 11.4747C109.236 11.687 109.594 12.0055 109.854 12.3991C110.159 11.9878 110.562 11.6612 111.025 11.4494C111.489 11.2377 111.998 11.1479 112.505 11.1884C114.667 11.1884 116.034 12.697 116.034 14.9972Z" fill="#282938"/>
<path d="M12.9966 4.78119V0.823486H0.619141V28.0152H12.9966V24.0575C10.4611 24.0575 8.0294 23.0421 6.23652 21.2346C4.44364 19.4271 3.4364 16.9756 3.4364 14.4194C3.4364 11.8631 4.44364 9.41164 6.23652 7.60416C8.0294 5.79664 10.4611 4.78119 12.9966 4.78119Z" fill="#282938"/>
<path d="M12.9976 4.78174V24.0581C15.5331 24.0581 17.9648 23.0427 19.7577 21.2351C21.5506 19.4276 22.5578 16.9761 22.5578 14.4199C22.5578 11.8637 21.5506 9.41219 19.7577 7.60471C17.9648 5.79718 15.5331 4.78174 12.9976 4.78174Z" fill="#282938"/>
<path d="M118.362 11.384C119.484 11.384 120.394 10.4668 120.394 9.33535C120.394 8.20386 119.484 7.28662 118.362 7.28662C117.239 7.28662 116.33 8.20386 116.33 9.33535C116.33 10.4668 117.239 11.384 118.362 11.384Z" fill="#282938"/>
</g>
<defs>
<clipPath id="clip0_377_272">
<rect width="120.832" height="28.4" fill="white" transform="translate(0.243652 0.274902)"/>
</clipPath>
</defs>
</svg>
