<svg width="121" height="29" viewBox="0 0 121 29" fill="none" xmlns="http://www.w3.org/2000/svg">
<g clip-path="url(#clip0_377_285)">
<rect width="119.861" height="28.4" transform="translate(0.848633 0.274902)" fill="white"/>
<path d="M35.7437 8.57011H38.7456V20.6917H35.7437V8.57011ZM39.9364 16.1149C39.9364 13.1169 41.7777 11.3282 44.6195 11.3282C47.4614 11.3282 49.3027 13.1169 49.3027 16.1149C49.3027 19.1128 47.5014 20.9116 44.6195 20.9116C41.7376 20.9116 39.9364 19.1628 39.9364 16.1149ZM46.2907 16.1149C46.2907 14.466 45.6402 13.4967 44.6195 13.4967C43.5988 13.4967 42.9584 14.496 42.9584 16.1149C42.9584 17.7338 43.5888 18.7131 44.6195 18.7131C45.6502 18.7131 46.2907 17.7937 46.2907 16.1249V16.1149ZM50.4334 21.2813H53.3153C53.4525 21.5856 53.6844 21.8376 53.9765 21.9996C54.2685 22.1616 54.6053 22.2251 54.9364 22.1807C56.0772 22.1807 56.6776 21.5611 56.6776 20.6617V18.9829H56.6175C56.3783 19.4975 55.9902 19.9286 55.5033 20.2207C55.0163 20.5129 54.4529 20.6526 53.8857 20.6218C51.6943 20.6218 50.2433 18.9529 50.2433 16.0849C50.2433 13.2169 51.6242 11.4081 53.9258 11.4081C54.5107 11.3853 55.0887 11.5415 55.5824 11.8558C56.0759 12.1701 56.4616 12.6276 56.6875 13.1669V11.4981H59.6896V20.5918C59.6896 22.7803 57.7583 24.1393 54.9064 24.1393C52.2546 24.1393 50.6036 22.9501 50.4334 21.2913V21.2813ZM56.6875 16.1049C56.6875 14.6459 56.0171 13.7265 54.9564 13.7265C53.8957 13.7265 53.2453 14.6359 53.2453 16.1049C53.2453 17.5739 53.8857 18.4033 54.9564 18.4033C56.0271 18.4033 56.6875 17.5939 56.6875 16.1149V16.1049ZM60.8203 16.1049C60.8203 13.1069 62.6615 11.3182 65.5034 11.3182C68.3453 11.3182 70.1966 13.1069 70.1966 16.1049C70.1966 19.1028 68.3954 20.9015 65.5034 20.9015C62.6115 20.9015 60.8203 19.1628 60.8203 16.1149V16.1049ZM67.1745 16.1049C67.1745 14.456 66.5241 13.4867 65.5034 13.4867C64.4828 13.4867 63.8924 14.496 63.8924 16.1249C63.8924 17.7537 64.5228 18.7231 65.5435 18.7231C66.5641 18.7231 67.1745 17.7937 67.1745 16.1249V16.1049ZM71.3373 9.31955C71.3295 9.01694 71.4117 8.71874 71.5738 8.46282C71.7358 8.20691 71.9703 8.00476 72.2475 7.88209C72.5247 7.75941 72.8322 7.72169 73.1309 7.77371C73.4295 7.82573 73.7061 7.96514 73.9253 8.17425C74.1446 8.38338 74.2967 8.65286 74.3624 8.94846C74.4281 9.24398 74.4046 9.55243 74.2946 9.83462C74.1845 10.1167 73.9932 10.3599 73.7446 10.5333C73.496 10.7067 73.2015 10.8025 72.8983 10.8086C72.6974 10.8223 72.4958 10.7945 72.3061 10.7267C72.1165 10.659 71.9429 10.5527 71.7963 10.4148C71.6497 10.2769 71.5332 10.1102 71.4543 9.92511C71.3753 9.74003 71.3355 9.54068 71.3373 9.33959V9.31955ZM71.3373 11.518H74.3393V20.6917H71.3373V11.518ZM85.2369 16.1049C85.2369 19.1028 83.9059 20.8116 81.6245 20.8116C81.0394 20.8492 80.4567 20.7063 79.956 20.4025C79.4544 20.0987 79.0589 19.6485 78.8223 19.1128H78.7622V23.6297H75.7603V11.4981H78.7622V13.1369H78.8223C79.0478 12.5924 79.4359 12.1305 79.9339 11.814C80.4315 11.4976 81.015 11.3419 81.604 11.3681C83.9059 11.4081 85.2764 13.127 85.2764 16.1249L85.2369 16.1049ZM82.2349 16.1049C82.2349 14.6459 81.5638 13.7166 80.5135 13.7166C79.4627 13.7166 78.7923 14.6559 78.7823 16.1049C78.7722 17.5539 79.4627 18.4833 80.5135 18.4833C81.5638 18.4833 82.2349 17.5739 82.2349 16.1249V16.1049ZM90.3902 11.3082C92.8813 11.3082 94.3929 12.4874 94.4623 14.3761H91.7308C91.7308 13.7265 91.1906 13.3169 90.3602 13.3169C89.5291 13.3169 89.1593 13.6366 89.1593 14.1063C89.1593 14.5759 89.4897 14.7258 90.1599 14.8658L92.0809 15.2555C93.9127 15.6452 94.6926 16.3847 94.6926 17.7738C94.6926 19.6725 92.9617 20.8916 90.4099 20.8916C87.8581 20.8916 86.1872 19.6725 86.0571 17.8037H88.9487C89.0394 18.4833 89.5796 18.8829 90.4604 18.8829C91.3404 18.8829 91.741 18.5932 91.741 18.1135C91.741 17.6338 91.4611 17.5339 90.7403 17.384L89.0094 17.0143C87.2178 16.6445 86.2771 15.6952 86.2771 14.2962C86.2976 12.4974 87.9086 11.3282 90.3902 11.3282V11.3082ZM104.71 20.6717H101.817V18.9629H101.757C101.599 19.5366 101.248 20.0388 100.764 20.386C100.28 20.7332 99.6913 20.9045 99.0959 20.8716C98.6393 20.8975 98.1836 20.8253 97.7577 20.66C97.3319 20.4946 96.9463 20.2399 96.6277 19.9131C96.3091 19.5862 96.0647 19.1949 95.9101 18.7655C95.7556 18.3361 95.6956 17.8786 95.7335 17.424V11.4981H98.7356V16.7345C98.7356 17.8237 99.2962 18.4033 100.227 18.4033C100.445 18.4038 100.66 18.3576 100.859 18.2679C101.059 18.1783 101.236 18.0473 101.38 17.8835C101.524 17.7198 101.631 17.5272 101.694 17.3187C101.758 17.1102 101.776 16.8905 101.748 16.6745V11.4981H104.75L104.71 20.6717ZM106.161 11.4981H109.063V13.2668H109.122C109.282 12.7007 109.625 12.2033 110.097 11.8525C110.57 11.5017 111.145 11.3173 111.734 11.3282C112.334 11.2803 112.928 11.4593 113.401 11.8296C113.874 12.1999 114.19 12.7345 114.286 13.3268H114.346C114.527 12.7282 114.903 12.2069 115.414 11.845C115.925 11.4832 116.542 11.3013 117.168 11.3282C117.576 11.3145 117.983 11.3868 118.361 11.5402C118.74 11.6936 119.081 11.9249 119.364 12.219C119.647 12.5131 119.866 12.8633 120.005 13.247C120.143 13.6307 120.199 14.0392 120.169 14.4461V20.6917H117.168V15.2455C117.168 14.2462 116.717 13.7865 115.877 13.7865C115.69 13.7849 115.504 13.8235 115.332 13.8996C115.161 13.9758 115.008 14.0877 114.885 14.2279C114.76 14.368 114.668 14.5332 114.612 14.7122C114.557 14.8912 114.541 15.0799 114.566 15.2655V20.6917H111.714V15.2055C111.714 14.2862 111.264 13.7865 110.443 13.7865C110.254 13.7866 110.066 13.8268 109.894 13.9044C109.721 13.9821 109.566 14.0956 109.44 14.2372C109.315 14.3789 109.22 14.5455 109.163 14.7262C109.108 14.9069 109.09 15.0975 109.112 15.2854V20.6917H106.11L106.161 11.4981Z" fill="#282938"/>
<path d="M27.348 9.12005C26.8388 7.95725 26.1648 6.87357 25.3466 5.90232C24.1373 4.42368 22.6282 3.21756 20.9184 2.36337C19.2086 1.50918 17.3371 1.02626 15.4271 0.946403C13.517 0.86655 11.6116 1.19157 9.83634 1.90007C8.06113 2.60858 6.45627 3.6845 5.12741 5.05703C3.79854 6.42955 2.77581 8.06756 2.12653 9.86327C1.47725 11.6589 1.21613 13.5716 1.36037 15.4753C1.50461 17.379 2.05093 19.2307 2.96337 20.9083C3.87582 22.5861 5.1337 24.0517 6.65423 25.209C7.62989 25.9663 8.70795 26.582 9.85637 27.0377C11.4665 27.6967 13.1897 28.036 14.9297 28.037C18.5216 28.0291 21.9636 26.5993 24.5015 24.0611C27.0395 21.5229 28.4661 18.0833 28.4687 14.4963C28.4714 12.6461 28.0897 10.8155 27.348 9.12005ZM14.9197 3.69384C16.4823 3.69367 18.026 4.03474 19.4428 4.69315C19.0973 4.84221 18.7341 4.94632 18.362 5.00294C17.1378 5.17991 16.0037 5.7475 15.129 6.62099C14.2543 7.49448 13.686 8.627 13.5088 9.84962C13.431 10.5352 13.1187 11.1731 12.6247 11.6555C12.1307 12.1379 11.4851 12.4354 10.797 12.4978C9.57281 12.6747 8.43868 13.2423 7.56401 14.1158C6.68934 14.9893 6.12097 16.1218 5.94376 17.3444C5.88377 17.9963 5.60523 18.609 5.15323 19.0832C4.37337 17.4376 4.02304 15.6218 4.13483 13.8046C4.24662 11.9874 4.81691 10.228 5.79263 8.69011C6.76834 7.15225 8.11778 5.88584 9.7153 5.00878C11.3129 4.13172 13.1067 3.67249 14.9297 3.67385L14.9197 3.69384ZM6.64423 21.4916C6.76431 21.3816 6.88439 21.2816 7.00447 21.1617C7.89472 20.2998 8.46616 19.162 8.62555 17.934C8.69017 17.2437 8.99881 16.599 9.49616 16.1152C9.97466 15.6177 10.6188 15.3121 11.3073 15.2559C12.5316 15.0788 13.6656 14.5112 14.5403 13.6378C15.4149 12.7643 15.9833 11.6317 16.1605 10.4092C16.2038 9.68718 16.5141 9.007 17.0311 8.50054C17.5215 8.0127 18.1718 7.71816 18.8624 7.67108C19.987 7.51656 21.036 7.01725 21.8644 6.24207C22.8076 7.02361 23.6068 7.96379 24.2259 9.02018C24.1879 9.07146 24.1442 9.1184 24.0958 9.16005C23.6182 9.66194 22.9749 9.97426 22.2847 10.0394C21.0592 10.2133 19.9234 10.78 19.0481 11.654C18.1729 12.5281 17.6055 13.6623 17.4314 14.8861C17.3609 15.574 17.0544 16.2165 16.5638 16.7046C16.0732 17.1927 15.4287 17.4964 14.7396 17.5642C13.5118 17.7398 12.3735 18.3063 11.4937 19.1795C10.614 20.0526 10.0398 21.1859 9.85637 22.4109C9.80252 22.8993 9.63455 23.3683 9.36605 23.78C8.33936 23.1712 7.41983 22.3981 6.64423 21.4916ZM14.9197 25.3488C13.9043 25.3499 12.8938 25.2087 11.9178 24.9291C12.2516 24.3076 12.4686 23.6302 12.5581 22.9305C12.6283 22.2441 12.9333 21.6029 13.4219 21.115C13.9104 20.6271 14.5526 20.3224 15.24 20.2524C16.4659 20.0774 17.6023 19.5107 18.479 18.6371C19.3556 17.7634 19.9254 16.6297 20.1032 15.4058C20.1733 14.7193 20.4784 14.0781 20.967 13.5902C21.4555 13.1023 22.0976 12.7976 22.785 12.7276C23.7076 12.6077 24.5869 12.2647 25.3466 11.7283C25.7685 13.3251 25.8184 14.9972 25.4928 16.6162C25.167 18.2353 24.4743 19.7584 23.4676 21.0686C22.4609 22.3788 21.167 23.4413 19.6853 24.1746C18.2036 24.9078 16.5734 25.2925 14.9197 25.2989V25.3488Z" fill="#282938"/>
</g>
<defs>
<clipPath id="clip0_377_285">
<rect width="119.861" height="28.4" fill="white" transform="translate(0.848633 0.274902)"/>
</clipPath>
</defs>
</svg>
