<svg width="29" height="29" viewBox="0 0 29 29" fill="none" xmlns="http://www.w3.org/2000/svg">
<path d="M21.606 4.92042C21.606 4.24434 21.3459 3.60789 20.8747 3.1297L18.5216 0.742043C18.0569 0.270443 17.3972 0 16.7407 0H16.5977V5.06552H21.606L21.606 4.92042Z" fill="#FF7800"/>
<path d="M15.1964 17.4218C15.3557 16.9313 15.6336 16.4745 15.9959 16.1044L21.6295 10.4111V6.75403H15.783C15.3232 6.75403 14.978 6.37642 14.978 5.90977V0H2.49756C1.12116 0 0.00146484 1.13614 0.00146484 2.53276V26.2844C0.00146484 27.681 1.12116 28.8172 2.49756 28.8172H19.1112C20.4876 28.8172 21.6295 27.681 21.6295 26.2844V19.9834L20.7151 20.8887C20.3446 21.2613 19.9108 21.5326 19.4216 21.6983L16.776 22.5945L16.373 22.6168C15.7067 22.6168 15.0762 22.2878 14.6845 21.7371C14.2962 21.1889 14.1905 20.4782 14.4018 19.8359L15.1964 17.4218ZM4.16162 15.1966H12.4549C12.9148 15.1966 13.287 15.5742 13.287 16.0408C13.287 16.5075 12.9148 16.8851 12.4549 16.8851H4.16162C3.70173 16.8851 3.32959 16.5075 3.32959 16.0408C3.32959 15.5742 3.70173 15.1966 4.16162 15.1966ZM3.32959 12.6638C3.32959 12.1972 3.70173 11.8195 4.16162 11.8195H12.4549C12.9148 11.8195 13.287 12.1972 13.287 12.6638C13.287 13.1305 12.9148 13.5081 12.4549 13.5081H4.16162C3.70173 13.5081 3.32959 13.1305 3.32959 12.6638ZM3.32959 19.4178C3.32959 18.9512 3.70173 18.5736 4.16162 18.5736H12.4549C12.9148 18.5736 13.287 18.9512 13.287 19.4178C13.287 19.8845 12.9148 20.2621 12.4549 20.2621H4.16162C3.70173 20.2621 3.32959 19.8845 3.32959 19.4178ZM15.783 23.6391C16.2429 23.6391 16.6151 24.0167 16.6151 24.4834C16.6151 24.95 16.243 25.3276 15.783 25.3276H10.7909C10.331 25.3276 9.95883 24.95 9.95883 24.4834C9.95883 24.0167 10.331 23.6391 10.7909 23.6391H15.783ZM4.16162 10.131C3.70173 10.131 3.32959 9.75344 3.32959 9.28679C3.32959 8.82014 3.70173 8.44254 4.16162 8.44254H15.783C16.2429 8.44254 16.6151 8.82014 16.6151 9.28679C16.6151 9.75344 16.2429 10.131 15.783 10.131H4.16162Z" fill="#FF7800"/>
<path d="M16.7025 18.1689L15.9786 20.3725C15.8701 20.7026 16.1797 21.0166 16.505 20.9064L18.6754 20.1708L16.7025 18.1689Z" fill="#FF7800"/>
<path d="M23.1652 11.218L17.6855 16.7782L20.0488 19.1762C21.2873 17.9193 23.6971 15.4737 25.5282 13.6157L23.1652 11.218Z" fill="#FF7800"/>
<path d="M27.9121 8.79554C27.6196 8.49707 27.1889 8.32642 26.7323 8.32642C26.2756 8.32642 25.845 8.49707 25.5508 8.79638L24.3418 10.0232L26.7047 12.4208C27.3666 11.7491 27.8241 11.2848 27.9138 11.1938C28.5637 10.5334 28.5637 9.45755 27.9121 8.79554Z" fill="#FF7800"/>
</svg>
