<svg width="110" height="66" viewBox="0 0 110 66" fill="none" xmlns="http://www.w3.org/2000/svg">
<path d="M25.4525 27.7503C25.9752 27.156 26.5795 26.6458 27.3725 26.5183C29.4581 26.1867 31.3627 26.7071 32.5101 29.1124C32.9334 30.0026 33.1246 30.954 33.1348 31.9488C33.1476 33.1451 33.1629 34.3338 32.7906 35.4892C32.222 37.2543 31.1383 38.4863 29.2541 38.8486C27.7575 39.1368 26.4444 38.7669 25.376 37.6395C25.2996 37.5604 25.2281 37.4763 25.1185 37.3564C25.0139 37.7594 24.9298 38.1241 24.8228 38.4812C24.7972 38.5654 24.6978 38.6879 24.629 38.6904C24.1164 38.7083 23.6014 38.7006 23.0532 38.7006C23.0966 37.9201 23.1399 37.1753 23.1807 36.4304C23.1858 36.3182 23.1883 36.206 23.1883 36.0938C23.1883 31.5152 23.1883 26.9341 23.1883 22.3555C23.1883 22.2229 23.1883 22.0928 23.1883 21.9474H25.3785V27.7248C25.3811 27.7554 25.3836 27.786 25.3862 27.8166C25.4067 27.7936 25.4296 27.7707 25.45 27.7477L25.4525 27.7503ZM25.3734 32.6043C25.3734 33.5048 25.3683 34.4051 25.3785 35.3056C25.3785 35.4408 25.4117 35.6193 25.4984 35.7035C25.8605 36.0529 26.2124 36.4355 26.6381 36.6906C28.0149 37.5196 29.657 37.0094 30.3811 35.5734C30.6768 34.9842 30.7763 34.3567 30.8452 33.7062C30.9548 32.663 30.9395 31.63 30.6871 30.6148C30.4397 29.6302 29.9808 28.7502 28.943 28.4212C27.4693 27.9544 26.4137 28.4441 25.4449 29.6251C25.3785 29.7067 25.3785 29.8572 25.3785 29.9771C25.3734 30.8546 25.376 31.732 25.376 32.6094L25.3734 32.6043Z" fill="#16508F"/>
<path d="M62.634 33.0552H55.2041C55.1583 34.1367 55.2855 35.1468 55.9334 36.0217C56.8438 37.2486 58.871 37.4527 60.1024 36.4196C60.5003 36.0855 60.8109 35.6468 61.1985 35.2131C61.6703 35.5014 62.2006 35.8253 62.7568 36.1671C62.438 36.7869 62.0224 37.3022 61.512 37.7486C59.794 39.2433 56.7721 39.3734 54.9623 38.0138C53.863 37.1899 53.3353 36.0217 53.1211 34.7107C52.9936 33.9225 52.8942 33.1139 52.9273 32.318C52.9809 31.0172 53.2001 29.7316 53.8809 28.5837C54.633 27.3161 55.7292 26.5917 57.2239 26.431C58.0804 26.3391 58.9035 26.3697 59.6993 26.6834C61.1452 27.2548 61.9484 28.4001 62.3463 29.8412C62.5142 30.4586 62.5652 31.1141 62.6266 31.7568C62.6673 32.1701 62.634 32.5884 62.634 33.0552ZM60.3931 31.3309C60.4774 30.2851 60.0181 29.1321 59.3295 28.6118C58.5545 28.0277 57.3667 27.9793 56.5324 28.4971C55.7093 29.0071 55.0769 30.4075 55.2552 31.3309H60.3953H60.3931Z" fill="#16508F"/>
<path d="M108.356 28.5382C108.588 28.3215 108.78 28.1378 108.974 27.9592C109.72 27.2782 110.526 26.6481 111.546 26.4976C112.609 26.3395 113.693 26.3089 114.519 27.2247C115.006 27.7654 115.289 28.4158 115.304 29.1198C115.366 32.2088 115.378 35.3002 115.417 38.3892C115.419 38.6519 115.338 38.7565 115.072 38.7437C114.738 38.7284 114.401 38.7412 114.024 38.7412V38.3637C114.024 35.7977 114.032 33.2316 114.019 30.6656C114.017 30.1554 113.976 29.6351 113.881 29.1351C113.647 27.9108 112.788 27.5282 111.615 27.6965C110.263 27.8878 109.379 28.8112 108.563 29.8034C108.489 29.8927 108.484 30.0534 108.484 30.1809C108.479 32.8924 108.474 35.6063 108.489 38.3177C108.489 38.6596 108.4 38.7795 108.056 38.7463C107.744 38.7157 107.428 38.7412 107.074 38.7412C107.074 38.6034 107.074 38.4836 107.074 38.3637C107.071 35.6395 107.074 32.9179 107.059 30.1937C107.059 29.8366 107.005 29.4744 106.931 29.1249C106.668 27.8725 105.804 27.5384 104.685 27.6914C103.321 27.8776 102.43 28.8188 101.604 29.8136C101.53 29.9003 101.53 30.0661 101.53 30.1937C101.526 32.9051 101.523 35.6191 101.533 38.3305C101.533 38.6494 101.456 38.7769 101.123 38.7488C100.801 38.7208 100.475 38.7437 100.136 38.7437V26.6201H101.444V28.5178C101.785 28.2041 102.053 27.9236 102.359 27.6889C102.731 27.4006 103.119 27.1277 103.527 26.893C104.419 26.3803 105.393 26.3191 106.367 26.536C107.158 26.7119 107.693 27.2655 108.076 27.9643C108.167 28.1301 108.247 28.3036 108.364 28.5434L108.356 28.5382Z" fill="#0C7DC0"/>
<path d="M48.2817 26.5918H50.4694V38.6874H48.4576V37.1187C48.0166 37.4452 47.6264 37.7615 47.2134 38.0395C46.1093 38.7792 44.9059 39.0853 43.5928 38.7767C42.5728 38.5369 41.8742 37.9043 41.5632 36.9044C41.4229 36.4504 41.321 35.9658 41.3184 35.4939C41.2954 32.5809 41.3082 29.6654 41.3082 26.7525C41.3082 26.7092 41.3159 26.6658 41.3235 26.6046H43.5265V26.9515C43.5265 29.5506 43.5163 32.1498 43.5342 34.749C43.5367 35.1903 43.608 35.6495 43.7355 36.0703C43.9268 36.7029 44.4852 37.0498 45.1481 37.0549C46.4204 37.06 47.3511 36.3815 48.1925 35.5321C48.2766 35.4479 48.2792 35.2643 48.2792 35.124C48.2843 32.4126 48.2817 29.7012 48.2817 26.9898V26.5944V26.5918Z" fill="#16508F"/>
<path d="M65.2847 43.1308V26.6658H66.363C66.4828 27.153 66.6026 27.6504 66.7402 28.2141C66.8807 28.0891 66.9776 28.005 67.0693 27.9182C67.9516 27.0739 68.9434 26.4439 70.2051 26.3827C71.9927 26.2934 73.2626 27.1147 74.0961 28.6553C74.5753 29.538 74.8127 30.497 74.8889 31.4918C75.0035 33.0222 74.9555 34.5425 74.3867 35.999C73.7418 37.6595 72.5866 38.7206 70.779 38.9348C69.9707 39.0318 69.1852 38.8226 68.4871 38.4196C67.9768 38.1237 67.5226 37.7283 67.0486 37.3713C66.9643 37.3074 66.8881 37.231 66.7505 37.106C66.7402 37.2972 66.7298 37.412 66.7298 37.5294C66.7298 39.2613 66.7202 40.9958 66.738 42.7278C66.7402 43.067 66.6278 43.1614 66.309 43.141C65.9754 43.1181 65.6411 43.1359 65.2869 43.1359L65.2847 43.1308ZM73.5044 32.8157C73.4896 31.6295 73.4023 30.5251 72.9667 29.4844C72.2449 27.7652 70.6237 27.1224 68.956 27.8902C68.0633 28.3009 67.411 28.9997 66.8119 29.7496C66.7505 29.8262 66.7298 29.9563 66.7298 30.0634C66.7246 31.7851 66.7246 33.5043 66.7298 35.226C66.7298 35.3408 66.7557 35.4837 66.8245 35.5705C67.3548 36.2464 67.9383 36.8662 68.6956 37.2972C70.4041 38.2741 72.2197 37.6569 72.9719 35.8383C73.3794 34.8485 73.4741 33.8028 73.5074 32.8182L73.5044 32.8157Z" fill="#0C7DC0"/>
<path d="M88.8587 36.5117C89.2003 36.2336 89.5398 35.9607 89.9044 35.6648C90.1078 35.8944 90.3016 36.124 90.5057 36.3408C91.3629 37.2438 92.3976 37.8279 93.6519 37.7794C95.032 37.7233 96.0718 36.93 96.0563 35.4685C96.0518 34.892 95.83 34.3844 95.3197 34.1064C94.6925 33.7645 94.0246 33.4916 93.3664 33.2059C92.5536 32.854 91.7142 32.5555 90.9191 32.1704C89.6877 31.5785 89.0628 30.5965 89.244 29.1987C89.4119 27.8902 90.1995 27.0766 91.4058 26.6455C93.5506 25.8802 95.7812 26.6352 97.1583 28.6019C96.8291 28.8442 96.4978 29.0865 96.1561 29.3365C95.9113 29.0763 95.6843 28.8161 95.4373 28.5713C94.4884 27.6352 93.3287 27.3877 92.0766 27.6759C91.1225 27.8953 90.5922 28.8059 90.7305 29.7726C90.7993 30.2547 91.0693 30.6195 91.4849 30.8312C92.0736 31.1322 92.6882 31.3771 93.2954 31.6398C94.1593 32.0148 95.0468 32.3438 95.8884 32.7647C96.7042 33.1702 97.3491 33.7977 97.4615 34.7466C97.6856 36.6545 97.0333 38.0242 94.9987 38.6798C92.7193 39.4144 90.3504 38.5752 88.94 36.6519C88.9149 36.6163 88.8971 36.578 88.8564 36.5117H88.8587Z" fill="#0C7DC0"/>
<path d="M35.75 21.9498H37.8892V38.6801H35.75V21.9498Z" fill="#16508F"/>
<path d="M82.7419 26.4288V27.7705C82.5075 27.7935 82.2649 27.8088 82.0253 27.8419C81.1459 27.9592 80.47 28.4081 79.9833 29.1351C79.4249 29.9667 79.0625 30.8492 79.0854 31.8976C79.1343 33.9994 79.098 36.1037 79.101 38.2055C79.101 38.8279 79.1291 38.736 78.55 38.7386C78.2719 38.7386 77.9946 38.7386 77.6987 38.7386V26.615H79.101V28.6556C79.1291 28.6658 79.1572 28.6785 79.1875 28.6887C79.2563 28.5867 79.328 28.4898 79.3887 28.3852C79.9426 27.4567 80.6563 26.717 81.7627 26.4951C82.0741 26.4314 82.4025 26.4492 82.739 26.4263L82.7419 26.4288Z" fill="#0C7DC0"/>
<path d="M84.9121 26.6606H86.2833C86.2885 26.7882 86.2988 26.9055 86.2988 27.0229C86.3018 30.7826 86.2988 34.5425 86.3144 38.3022C86.3144 38.6363 86.2352 38.7766 85.8832 38.746C85.5726 38.718 85.256 38.7409 84.9121 38.7409V26.6606Z" fill="#0C7DC0"/>
<path d="M5.51117 43.4141C5.18989 43.233 4.86862 43.0519 4.54993 42.8682C2.14044 41.4704 -0.269047 40.0701 -2.67854 38.6697C-2.69636 38.6595 -2.71167 38.6442 -2.72949 38.6315C-2.72187 38.5856 -2.70908 38.5396 -2.70908 38.4937C-2.70908 37.7617 -2.70657 37.0321 -2.70405 36.3001C-2.69636 36.2669 -2.68105 36.2338 -2.68105 36.2031C-2.68105 35.6343 -2.68105 35.063 -2.68105 34.4942C-2.68105 33.882 -2.67595 33.2724 -2.67595 32.6602C-2.66833 32.6142 -2.65561 32.5684 -2.65561 32.5225C-2.65302 32.2368 -2.65302 31.9485 -2.65302 31.6628C-2.6224 31.6756 -2.58927 31.6884 -2.55865 31.7037C-1.26601 32.4357 0.0241978 33.1703 1.31692 33.9024C1.33474 33.9126 1.35767 33.9101 1.38067 33.9152C1.40611 33.9381 1.42911 33.9636 1.45966 33.9814C1.93647 34.2518 2.41327 34.5197 2.8875 34.79C3.44337 35.1063 3.99665 35.4227 4.55252 35.7364C4.86351 35.9123 5.17458 36.0807 5.48824 36.2542C5.48824 36.4455 5.48565 36.6368 5.48824 36.8281C5.49586 38.5779 5.50606 40.3302 5.51376 42.08C5.51376 42.5238 5.51376 42.9703 5.51376 43.4141H5.51117Z" fill="#0368AA"/>
<path d="M9.51135 26.8728C9.7026 27.0871 9.89378 27.2987 10.0825 27.513C10.2941 27.7553 10.5032 27.9976 10.7148 28.2425C11.0539 28.6328 11.3905 29.0231 11.7322 29.4133C11.9999 29.722 12.2727 30.0255 12.5404 30.3341C12.905 30.7524 13.2645 31.1758 13.6266 31.5967C13.6087 31.6095 13.5935 31.6248 13.5756 31.635C12.4843 32.2599 11.3931 32.8874 10.3017 33.5123C10.0544 33.6552 9.80459 33.798 9.55217 33.9434C9.5751 33.9766 9.58782 33.997 9.60313 34.0174C10.391 34.9204 11.1814 35.8207 11.9693 36.7237C12.5404 37.3767 13.109 38.0297 13.6776 38.6852C13.4022 38.8484 13.1269 39.0142 12.8489 39.1775C12.2752 39.5117 11.699 39.8458 11.1227 40.1774C10.6179 40.4682 10.1106 40.7539 9.60572 41.0421C8.29259 39.5193 6.98204 37.9965 5.6715 36.4737C5.61285 36.4048 5.56441 36.3284 5.51087 36.2569C5.52359 36.2518 5.53631 36.2493 5.54651 36.2416C6.84944 35.4943 8.15487 34.7443 9.4578 33.997C9.48331 33.9817 9.50373 33.9613 9.52666 33.9409C9.50114 33.9102 9.48331 33.8847 9.4629 33.8618C8.44812 32.6884 7.43075 31.5151 6.41597 30.3418C6.10749 29.9873 5.79642 29.6352 5.48535 29.2807C5.48535 29.273 5.48535 29.2679 5.48535 29.2603C5.49297 29.2577 5.49556 29.25 5.49556 29.2424C5.52617 29.2271 5.55931 29.2144 5.58985 29.1965C6.89788 28.4236 8.20591 27.6508 9.51135 26.8779V26.8728Z" fill="#CEDFED"/>
<path d="M13.6777 38.6827C13.1091 38.0297 12.5379 37.3742 11.9694 36.7213C11.1816 35.8183 10.3911 34.9179 9.60328 34.0149C9.58797 33.997 9.57517 33.9741 9.55225 33.9409C9.80725 33.7955 10.0546 33.6526 10.3019 33.5098C11.3931 32.8849 12.4844 32.2574 13.5757 31.6325C13.5936 31.6223 13.6089 31.607 13.6267 31.5942C13.8077 31.7932 13.9888 31.9921 14.1672 32.1937C15.3478 33.5456 16.5283 34.8974 17.7088 36.2493C17.7266 36.2697 17.7419 36.2901 17.7649 36.3157C17.7419 36.331 17.7241 36.3488 17.7037 36.3616C16.383 37.1268 15.0622 37.8945 13.7389 38.6598C13.7211 38.67 13.7006 38.6751 13.6802 38.6853L13.6777 38.6827Z" fill="#0C7DC0"/>
<path d="M5.48519 29.2577C5.48519 29.2577 5.49029 29.2704 5.48519 29.2781C5.48519 29.2883 5.4826 29.2985 5.48008 29.3087C5.47247 29.3444 5.45716 29.3826 5.45716 29.4184C5.45716 29.9999 5.45716 30.5815 5.45716 31.163C5.45716 31.1988 5.47247 31.237 5.48008 31.2727C5.48008 31.9563 5.48008 32.6399 5.48008 33.3235C5.48008 34.2979 5.48008 35.2748 5.4826 36.2492V36.2568C5.16901 36.086 4.85543 35.9151 4.54688 35.7391C3.99108 35.4253 3.43772 35.1065 2.88193 34.7928C2.40512 34.5224 1.92831 34.2546 1.45409 33.9842C1.42606 33.9689 1.40054 33.9408 1.37503 33.9178C1.37503 33.696 1.37503 33.474 1.37503 33.2521C1.37503 31.3518 1.37503 29.4515 1.37251 27.5512C1.37251 27.3676 1.36482 27.1864 1.3623 27.0028C1.3623 26.9952 1.36741 26.985 1.36992 26.9773C1.98955 27.3216 2.60658 27.666 3.22613 28.0103C3.71056 28.2807 4.19506 28.5562 4.682 28.8266C4.94721 28.9745 5.21746 29.1148 5.4826 29.2577H5.48519Z" fill="#1F3566"/>
<path d="M5.51101 36.2543C5.56456 36.3257 5.613 36.4022 5.67165 36.471C6.98219 37.9939 8.29532 39.5166 9.60586 41.0395C9.25915 41.246 8.91236 41.4527 8.56046 41.6567C7.58651 42.223 6.60996 42.7867 5.63341 43.3504C5.59259 43.3734 5.54925 43.3938 5.50591 43.4142C5.50591 42.9704 5.50591 42.5239 5.50591 42.0801C5.49829 40.3303 5.48809 38.578 5.48047 36.8282C5.48047 36.6369 5.48047 36.4456 5.48047 36.2543V36.2466C5.48809 36.2466 5.49571 36.2466 5.5034 36.2492L5.51101 36.2543Z" fill="#0C7DC0"/>
<path d="M5.48531 29.2578C5.21758 29.115 4.94985 28.9747 4.68471 28.8267C4.19769 28.5564 3.71578 28.2834 3.22876 28.0105C2.61173 27.6661 1.99218 27.3218 1.37256 26.9774C1.49245 26.8295 1.60716 26.679 1.73207 26.5361C2.93301 25.1409 4.13646 23.7482 5.33998 22.3555C5.37563 22.3147 5.41897 22.279 5.45979 22.2433C5.45979 24.516 5.45979 26.7861 5.45979 29.0588C5.45979 29.1201 5.48272 29.1838 5.49292 29.2451C5.49292 29.2502 5.48782 29.2553 5.48531 29.2578Z" fill="#0368AA"/>
<path d="M5.49309 29.2451C5.48037 29.1838 5.45996 29.1201 5.45996 29.0588C5.45996 26.7861 5.45996 24.516 5.45996 22.2433C5.67163 22.478 5.88574 22.7126 6.09482 22.9498C7.21928 24.2354 8.34367 25.5235 9.46554 26.8116C9.48344 26.832 9.49616 26.8524 9.51147 26.8729C8.20345 27.6457 6.89549 28.4186 5.58998 29.1915C5.55944 29.2093 5.52882 29.2221 5.4982 29.2374V29.2425L5.49309 29.2451Z" fill="#0C7DC0"/>
<path d="M1.36513 27.0002C1.36765 27.1838 1.37534 27.365 1.37534 27.5486C1.37534 29.4489 1.37534 31.3492 1.37785 33.2495C1.37785 33.4714 1.37785 33.6934 1.37785 33.9152C1.35751 33.9101 1.332 33.9126 1.3141 33.9024C0.0214567 33.1704 -1.26875 32.4358 -2.56146 31.7037C-2.59201 31.6859 -2.62514 31.6757 -2.65576 31.6629C-2.65576 31.6528 -2.65576 31.6451 -2.65576 31.6349C-2.51554 31.464 -2.37531 31.2931 -2.2325 31.1247C-1.74807 30.561 -1.26364 29.9973 -0.776628 29.4336C-0.371262 28.9617 0.0392807 28.4949 0.444646 28.023C0.692037 27.7373 0.93425 27.4465 1.18408 27.1609C1.23763 27.0997 1.30397 27.0512 1.36513 26.9977V27.0002Z" fill="#CEDFED"/>
<path d="M5.51087 36.2546C5.51087 36.2546 5.49556 36.252 5.48787 36.252C5.48787 35.2776 5.48787 34.3007 5.48535 33.3263C5.48535 32.6427 5.48535 31.9591 5.48535 31.2755C5.48535 30.62 5.48535 29.9645 5.48535 29.3115C5.48535 29.3013 5.48786 29.2911 5.49045 29.2809C5.80152 29.6354 6.11259 29.9874 6.42107 30.342C7.43844 31.5153 8.45322 32.6887 9.46801 33.862C9.48842 33.8849 9.50624 33.9105 9.53176 33.9411C9.50624 33.9615 9.48583 33.9818 9.4629 33.9971C8.15998 34.7471 6.85454 35.4945 5.55162 36.2418C5.54141 36.2495 5.52869 36.2521 5.51597 36.2572L5.51087 36.2546Z" fill="#B1C5E4"/>
<path d="M5.49359 29.2451V29.2397C5.49359 29.2477 5.49088 29.253 5.48291 29.2584C5.48825 29.2558 5.49088 29.2504 5.49088 29.2451H5.49359Z" fill="#1D3667"/>
<path d="M5.48289 29.3064C5.48289 29.962 5.48289 30.6175 5.48289 31.2704C5.47527 31.2348 5.45996 31.1965 5.45996 31.1608C5.45996 30.5792 5.45996 29.9976 5.45996 29.4161C5.45996 29.3804 5.47527 29.3421 5.48289 29.3064Z" fill="white"/>
</svg>
