<svg width="50" height="50" viewBox="0 0 50 50" fill="none" xmlns="http://www.w3.org/2000/svg">
<path d="M45.4375 8.20857C42.2292 16.2086 34.1875 27.0836 27.4583 32.4794L23.3542 35.7711C22.8333 36.1461 22.3125 36.4794 21.7292 36.7086C21.7292 36.3336 21.7083 35.9169 21.6458 35.5211C21.4167 33.7711 20.625 32.1461 19.2292 30.7502C17.8125 29.3336 16.0833 28.5002 14.3125 28.2711C13.8958 28.2502 13.4792 28.2086 13.0625 28.2502C13.2917 27.6044 13.6458 27.0002 14.0833 26.5002L17.3333 22.3961C22.7083 15.6669 33.625 7.58357 41.6042 4.39607C42.8333 3.93773 44.0208 4.27107 44.7708 5.0419C45.5625 5.81273 45.9375 7.00023 45.4375 8.20857Z" stroke="#F3BC4C" stroke-width="3.125" stroke-linecap="round" stroke-linejoin="round"/>
<path d="M21.7288 36.7084C21.7288 39.0001 20.8538 41.1876 19.208 42.8543C17.9372 44.1251 16.208 45.0001 14.1455 45.2709L9.02051 45.8334C6.22884 46.1459 3.83301 43.7709 4.16634 40.9376L4.72884 35.8126C5.22884 31.2501 9.04134 28.3334 13.083 28.2501C13.4997 28.2293 13.9372 28.2501 14.333 28.2709C16.1038 28.5001 17.833 29.3126 19.2497 30.7501C20.6455 32.1459 21.4372 33.7709 21.6663 35.5209C21.6872 35.9167 21.7288 36.3126 21.7288 36.7084Z" stroke="#F3BC4C" stroke-width="3.125" stroke-linecap="round" stroke-linejoin="round"/>
<path d="M29.6662 30.1459C29.6662 24.7084 25.2495 20.2917 19.812 20.2917" stroke="#F3BC4C" stroke-width="3.125" stroke-linecap="round" stroke-linejoin="round"/>
</svg>
