<svg width="50" height="50" viewBox="0 0 50 50" fill="none" xmlns="http://www.w3.org/2000/svg">
<path d="M41.6667 29.1666C43.9679 29.1666 45.8333 27.3011 45.8333 24.9999C45.8333 22.6987 43.9679 20.8333 41.6667 20.8333C39.3655 20.8333 37.5 22.6987 37.5 24.9999C37.5 27.3011 39.3655 29.1666 41.6667 29.1666Z" stroke="#F3BC4C" stroke-width="3.125" stroke-linecap="round" stroke-linejoin="round"/>
<path d="M41.6667 12.5001C43.9679 12.5001 45.8333 10.6346 45.8333 8.33341C45.8333 6.03223 43.9679 4.16675 41.6667 4.16675C39.3655 4.16675 37.5 6.03223 37.5 8.33341C37.5 10.6346 39.3655 12.5001 41.6667 12.5001Z" stroke="#F3BC4C" stroke-width="3.125" stroke-linecap="round" stroke-linejoin="round"/>
<path d="M41.6667 45.8333C43.9679 45.8333 45.8333 43.9679 45.8333 41.6667C45.8333 39.3655 43.9679 37.5 41.6667 37.5C39.3655 37.5 37.5 39.3655 37.5 41.6667C37.5 43.9679 39.3655 45.8333 41.6667 45.8333Z" stroke="#F3BC4C" stroke-width="3.125" stroke-linecap="round" stroke-linejoin="round"/>
<path d="M8.33317 29.1666C10.6344 29.1666 12.4998 27.3011 12.4998 24.9999C12.4998 22.6987 10.6344 20.8333 8.33317 20.8333C6.03198 20.8333 4.1665 22.6987 4.1665 24.9999C4.1665 27.3011 6.03198 29.1666 8.33317 29.1666Z" stroke="#F3BC4C" stroke-width="3.125" stroke-linecap="round" stroke-linejoin="round"/>
<path d="M12.5 25H37.5" stroke="#F3BC4C" stroke-width="3.125" stroke-linecap="round" stroke-linejoin="round"/>
<path d="M37.4998 8.33325H29.1665C24.9998 8.33325 22.9165 10.4166 22.9165 14.5833V35.4166C22.9165 39.5833 24.9998 41.6666 29.1665 41.6666H37.4998" stroke="#F3BC4C" stroke-width="3.125" stroke-linecap="round" stroke-linejoin="round"/>
</svg>
