<svg width="50" height="50" viewBox="0 0 50 50" fill="none" xmlns="http://www.w3.org/2000/svg">
<path d="M40.2495 20.8329H9.77036C6.68703 20.8329 4.18701 18.312 4.18701 15.2495V9.77036C4.18701 6.68703 6.70786 4.18701 9.77036 4.18701H40.2495C43.3329 4.18701 45.8329 6.70786 45.8329 9.77036V15.2495C45.8329 18.312 43.312 20.8329 40.2495 20.8329Z" stroke="#FF7800" stroke-width="3.125" stroke-linecap="round" stroke-linejoin="round"/>
<path d="M40.2495 45.8329H9.77036C6.68703 45.8329 4.18701 43.312 4.18701 40.2495V34.7704C4.18701 31.687 6.70786 29.187 9.77036 29.187H40.2495C43.3329 29.187 45.8329 31.7079 45.8329 34.7704V40.2495C45.8329 43.312 43.312 45.8329 40.2495 45.8329Z" stroke="#FF7800" stroke-width="3.125" stroke-linecap="round" stroke-linejoin="round"/>
<path d="M12.5 10.4166V14.5833" stroke="#FF7800" stroke-width="3.125" stroke-linecap="round" stroke-linejoin="round"/>
<path d="M20.8335 10.4166V14.5833" stroke="#FF7800" stroke-width="3.125" stroke-linecap="round" stroke-linejoin="round"/>
<path d="M12.5 35.4166V39.5833" stroke="#FF7800" stroke-width="3.125" stroke-linecap="round" stroke-linejoin="round"/>
<path d="M20.8335 35.4166V39.5833" stroke="#FF7800" stroke-width="3.125" stroke-linecap="round" stroke-linejoin="round"/>
<path d="M29.1665 12.5H37.4998" stroke="#FF7800" stroke-width="3.125" stroke-linecap="round" stroke-linejoin="round"/>
<path d="M29.1665 37.5H37.4998" stroke="#FF7800" stroke-width="3.125" stroke-linecap="round" stroke-linejoin="round"/>
</svg>
