<svg width="23" height="24" viewBox="0 0 23 24" fill="none" xmlns="http://www.w3.org/2000/svg">
<circle cx="11.3145" cy="11.9244" r="11.088" fill="white"/>
<path d="M14.4939 5.65723H11.9171C11.9112 5.65719 11.9054 5.65744 11.8995 5.65799C9.29794 5.66593 8.95817 7.42491 8.9568 8.9623C8.95319 8.97685 8.95136 8.99176 8.95133 9.00673V10.086H7.17086C7.11907 10.086 7.0694 10.1059 7.03278 10.1414C6.99616 10.1768 6.97559 10.2249 6.97559 10.2751V12.9367C6.97559 12.9868 6.99616 13.0349 7.03278 13.0704C7.0694 13.1059 7.11907 13.1258 7.17086 13.1258H8.95133V18.9666C8.95133 19.0167 8.9719 19.0648 9.00852 19.1003C9.04515 19.1357 9.09481 19.1556 9.1466 19.1556H11.7451C11.7969 19.1556 11.8465 19.1357 11.8831 19.1003C11.9198 19.0648 11.9403 19.0167 11.9403 18.9666V13.126H14.4937C14.5455 13.126 14.5951 13.106 14.6318 13.0706C14.6684 13.0351 14.689 12.987 14.689 12.9369V10.2752C14.689 10.2251 14.6684 10.177 14.6318 10.1416C14.5951 10.1061 14.5455 10.0862 14.4937 10.0862H11.7451V8.65543H14.4937C14.5455 8.65543 14.5951 8.6355 14.6318 8.60005C14.6684 8.56459 14.689 8.51649 14.689 8.46635V5.84631C14.689 5.82149 14.684 5.7969 14.6742 5.77396C14.6644 5.75103 14.65 5.73018 14.6319 5.71262C14.6138 5.69506 14.5923 5.68113 14.5686 5.67163C14.5449 5.66212 14.5195 5.65723 14.4939 5.65723Z" fill="black"/>
</svg>
