<svg width="23" height="24" viewBox="0 0 23 24" fill="none" xmlns="http://www.w3.org/2000/svg">
<circle cx="11.7022" cy="11.9244" r="11.088" fill="white"/>
<path d="M15.6783 6.62175H7.7257C7.55077 6.61892 7.37706 6.65128 7.21488 6.71692C7.05271 6.78256 6.90539 6.88014 6.78168 7.00385C6.65797 7.12756 6.56039 7.27488 6.49475 7.43705C6.42911 7.59923 6.39675 7.77294 6.39959 7.94787V15.9012C6.39959 16.6492 6.97634 17.2273 7.7257 17.2273H15.679C15.8539 17.2301 16.0276 17.1976 16.1897 17.132C16.3519 17.0663 16.4991 16.9687 16.6228 16.845C16.7465 16.7213 16.8441 16.574 16.9098 16.4119C16.9755 16.2498 17.0079 16.0761 17.0051 15.9012V7.94787C17.0078 7.77293 16.9753 7.59925 16.9095 7.43711C16.8438 7.27498 16.7461 7.1277 16.6224 7.00402C16.4987 6.88034 16.3513 6.78277 16.1892 6.7171C16.027 6.65144 15.8533 6.61901 15.6783 6.62175ZM11.7101 9.84126C12.886 9.84126 13.8391 10.7646 13.8391 11.9046C13.8391 13.0432 12.886 13.9679 11.7101 13.9679C10.535 13.9679 9.58186 13.0438 9.58186 11.9046C9.58186 10.7646 10.535 9.84126 11.7101 9.84126ZM15.6783 15.5695C15.6783 15.8024 15.5788 15.9012 15.3467 15.9012H8.05605C7.82386 15.9012 7.72435 15.8024 7.72435 15.5695V10.9298L8.55021 11.1092C8.45948 11.4039 8.41339 11.7106 8.41347 12.019C8.41347 13.7817 9.88987 15.2114 11.7088 15.2114C13.5284 15.2114 15.0041 13.7817 15.0041 12.019C15.0041 11.7028 14.9561 11.3975 14.8674 11.1092L15.6777 10.9298L15.6783 15.5695ZM15.6783 9.60501C15.6783 9.69298 15.6434 9.77735 15.5812 9.83956C15.519 9.90176 15.4346 9.93671 15.3467 9.93671H14.0205C13.9326 9.93671 13.8482 9.90176 13.786 9.83956C13.7238 9.77735 13.6888 9.69298 13.6888 9.60501V8.27889C13.6888 8.19092 13.7238 8.10655 13.786 8.04435C13.8482 7.98214 13.9326 7.94719 14.0205 7.94719H15.3467C15.4346 7.94719 15.519 7.98214 15.5812 8.04435C15.6434 8.10655 15.6783 8.19092 15.6783 8.27889V9.60501Z" fill="black"/>
</svg>
