<svg width="110" height="66" viewBox="0 0 110 66" fill="none" xmlns="http://www.w3.org/2000/svg">
<path d="M105.628 31.733V29.9511H103.415V27.1808L103.342 27.2037L101.263 27.8396L101.222 27.8521V29.9511H97.9418V28.7819C97.9418 28.2374 98.0631 27.8208 98.3035 27.5429C98.5416 27.2683 98.8826 27.1287 99.3167 27.1287C99.6296 27.1287 99.9528 27.2024 100.279 27.3476L100.36 27.384V25.5073L100.322 25.4932C100.018 25.3841 99.6052 25.3291 99.0926 25.3291C98.4477 25.3291 97.8612 25.4695 97.3494 25.7479C96.8376 26.0266 96.4353 26.4245 96.1535 26.9305C95.8725 27.4359 95.7297 28.0196 95.7297 28.6655V29.9511H94.1884V31.733H95.7297V39.2399H97.9418V31.733H101.222V36.5035C101.222 38.4682 102.149 39.464 103.976 39.464C104.277 39.464 104.593 39.4287 104.915 39.3597C105.244 39.289 105.468 39.2183 105.599 39.1429L105.628 39.1257V37.3272L105.539 37.3868C105.418 37.4669 105.269 37.5322 105.094 37.5807C104.918 37.6302 104.77 37.6551 104.657 37.6551C104.229 37.6551 103.912 37.5397 103.715 37.3121C103.517 37.0823 103.415 36.6805 103.415 36.1184V31.733H105.628ZM89.2488 37.6553C88.4463 37.6553 87.8132 37.389 87.3673 36.8647C86.9183 36.3376 86.6913 35.5862 86.6913 34.6315C86.6913 33.6466 86.9183 32.8757 87.3673 32.3393C87.814 31.8064 88.4404 31.5361 89.231 31.5361C89.998 31.5361 90.6089 31.7943 91.046 32.3041C91.4853 32.8165 91.7086 33.5813 91.7086 34.5777C91.7086 35.5865 91.4986 36.3612 91.0852 36.8795C90.6747 37.3939 90.0571 37.6553 89.2488 37.6553ZM89.3479 29.7273C87.8162 29.7273 86.5996 30.1761 85.7321 31.0613C84.8653 31.9466 84.4252 33.1717 84.4252 34.703C84.4252 36.1573 84.8549 37.3271 85.701 38.1793C86.5471 39.0319 87.6986 39.4638 89.1238 39.4638C90.6081 39.4638 91.8011 39.0087 92.6679 38.1113C93.5347 37.2147 93.974 36.0013 93.974 34.5058C93.974 33.0287 93.562 31.8502 92.7485 31.0036C91.9349 30.1566 90.7901 29.7273 89.3479 29.7273ZM80.8589 29.7273C79.8176 29.7273 78.9552 29.9937 78.297 30.5192C77.6351 31.0478 77.2986 31.7411 77.2986 32.58C77.2986 33.016 77.3711 33.4034 77.5138 33.732C77.658 34.0617 77.8799 34.3517 78.175 34.5953C78.4679 34.8369 78.9205 35.09 79.5196 35.3475C80.0232 35.5547 80.3989 35.7302 80.6378 35.8684C80.8708 36.0038 81.0364 36.14 81.1304 36.2726C81.2206 36.4024 81.2672 36.5799 81.2672 36.7992C81.2672 37.4232 80.7998 37.7268 79.8383 37.7268C79.4818 37.7268 79.0743 37.6524 78.6291 37.5055C78.1831 37.3589 77.766 37.148 77.3903 36.8776L77.2986 36.8118V38.9413L77.3326 38.957C77.6454 39.1015 78.0404 39.2232 78.5048 39.3191C78.9693 39.4151 79.3909 39.464 79.7577 39.464C80.8878 39.464 81.7982 39.1961 82.4631 38.6676C83.1317 38.1354 83.4704 37.4257 83.4704 36.5577C83.4704 35.9316 83.2877 35.3946 82.9283 34.9617C82.5711 34.5321 81.9513 34.1378 81.0867 33.7893C80.3982 33.5129 79.9574 33.2834 79.7755 33.1073C79.6002 32.9371 79.5107 32.6965 79.5107 32.3918C79.5107 32.1217 79.6209 31.9053 79.8464 31.73C80.0742 31.5538 80.3908 31.4642 80.7879 31.4642C81.1562 31.4642 81.5334 31.5224 81.9084 31.6365C82.2834 31.7505 82.6125 31.9033 82.8869 32.0903L82.9771 32.1521V30.132L82.9423 30.117C82.6894 30.0083 82.3551 29.9153 81.9491 29.8398C81.5445 29.7651 81.1777 29.7273 80.8589 29.7273ZM71.5321 37.6553C70.7296 37.6553 70.0965 37.389 69.6505 36.8647C69.2016 36.3376 68.9746 35.5865 68.9746 34.6315C68.9746 33.6466 69.2016 32.8757 69.6513 32.3393C70.0973 31.8064 70.7237 31.5361 71.5143 31.5361C72.2812 31.5361 72.8914 31.7943 73.3292 32.3041C73.7686 32.8165 73.9919 33.5813 73.9919 34.5777C73.9919 35.5865 73.7819 36.3612 73.3684 36.8795C72.9572 37.3939 72.3404 37.6553 71.5321 37.6553ZM71.6312 29.7273C70.0987 29.7273 68.8821 30.1761 68.0153 31.0613C67.1485 31.9466 66.7085 33.1717 66.7085 34.703C66.7085 36.1579 67.1382 37.3271 67.9843 38.1793C68.8304 39.0319 69.9819 39.4638 71.4071 39.4638C72.8914 39.4638 74.0844 39.0087 74.9511 38.1113C75.8179 37.2147 76.2573 36.0013 76.2573 34.5058C76.2573 33.0287 75.8453 31.8502 75.0318 31.0036C74.2175 30.1566 73.0733 29.7273 71.6312 29.7273ZM63.3508 31.5596V29.9511H61.1661V39.2396H63.3508V34.4883C63.3508 33.6803 63.5342 33.0166 63.8959 32.5152C64.2523 32.0198 64.7279 31.7688 65.3085 31.7688C65.5052 31.7688 65.7263 31.8013 65.9659 31.8655C66.2026 31.9293 66.3742 31.9985 66.4755 32.0714L66.5672 32.1379V29.9352L66.5317 29.92C66.3283 29.8335 66.0406 29.7899 65.676 29.7899C65.1273 29.7899 64.6354 29.9663 64.2146 30.3137C63.8456 30.619 63.5786 31.0376 63.3744 31.5596H63.3508ZM57.2529 29.7273C56.2508 29.7273 55.3566 29.9423 54.5961 30.366C53.834 30.7906 53.2447 31.3969 52.8437 32.168C52.4446 32.9371 52.2419 33.8356 52.2419 34.8374C52.2419 35.715 52.4384 36.5205 52.8268 37.2302C53.2155 37.9412 53.7656 38.4975 54.4619 38.8832C55.1572 39.2685 55.9609 39.464 56.8506 39.464C57.889 39.464 58.7757 39.2563 59.4865 38.847L59.5146 38.8304V36.8287L59.4229 36.8957C59.1011 37.1303 58.741 37.3175 58.3542 37.4524C57.9681 37.5871 57.6161 37.6552 57.3069 37.6552C56.4497 37.6552 55.7619 37.3869 55.262 36.8581C54.7613 36.3285 54.5074 35.5849 54.5074 34.6491C54.5074 33.7074 54.7722 32.9447 55.294 32.3819C55.8144 31.8207 56.5037 31.5361 57.3431 31.5361C58.0613 31.5361 58.7609 31.7793 59.4236 32.2596L59.5146 32.3262V30.2169L59.4857 30.2003C59.2365 30.0609 58.8963 29.9457 58.4747 29.8584C58.0546 29.7713 57.6434 29.7273 57.2529 29.7273ZM50.737 29.9511H48.5521V39.2397H50.737V29.9511ZM49.6669 25.9941C49.3073 25.9941 48.9936 26.1165 48.7359 26.3591C48.4772 26.6024 48.3458 26.9087 48.3458 27.2701C48.3458 27.626 48.4756 27.9266 48.7318 28.1635C48.9864 28.3996 49.301 28.5192 49.6669 28.5192C50.0326 28.5192 50.3485 28.3996 50.6061 28.1639C50.8654 27.9266 50.9969 27.626 50.9969 27.2701C50.9969 26.9214 50.869 26.6181 50.6168 26.3689C50.3649 26.1202 50.0452 25.9941 49.6669 25.9941ZM44.2152 29.2658V39.2396H46.4451V26.2786H43.359L39.4361 35.9057L35.6293 26.2786H32.4175V39.2396H34.5129V29.2649H34.585L38.6048 39.2396H40.1862L44.1434 29.2658H44.2152Z" fill="#706D6E"/>
<path d="M14.5843 32.226H4.30566V21.9474H14.5843V32.226Z" fill="#F1511B"/>
<path d="M25.9348 32.226H15.6562V21.9474H25.9348V32.226Z" fill="#80CC28"/>
<path d="M14.584 43.5787H4.30566V33.3H14.584V43.5787Z" fill="#00ADEF"/>
<path d="M25.9348 43.5787H15.6562V33.3H25.9348V43.5787Z" fill="#FBBC09"/>
</svg>
