<svg width="110" height="66" viewBox="0 0 110 66" fill="none" xmlns="http://www.w3.org/2000/svg">
<mask id="mask0_156_65" style="mask-type:luminance" maskUnits="userSpaceOnUse" x="4" y="16" width="102" height="34">
<path d="M105.629 16.7705H4.30566V49.3122H105.629V16.7705Z" fill="white"/>
</mask>
<g mask="url(#mask0_156_65)">
<path fill-rule="evenodd" clip-rule="evenodd" d="M105.612 36.9428C105.612 43.7553 100.138 49.2779 93.3852 49.2779C86.6328 49.2779 81.1592 43.7553 81.1592 36.9428C81.1592 30.1303 86.6328 24.6077 93.3852 24.6077C100.138 24.6077 105.612 30.1303 105.612 36.9428ZM100.596 36.9428C100.596 40.9637 97.3708 44.2179 93.3852 44.2179C89.4004 44.2179 86.175 40.9637 86.175 36.9428C86.175 32.922 89.4004 29.6678 93.3852 29.6678C97.3708 29.6678 100.596 32.922 100.596 36.9428Z" fill="#888888"/>
<path fill-rule="evenodd" clip-rule="evenodd" d="M79.69 36.9428C79.69 43.7553 74.2163 49.2779 67.464 49.2779C60.7116 49.2779 55.2373 43.7553 55.2373 36.9428C55.2373 30.1303 60.7116 24.6077 67.464 24.6077C74.2163 24.6077 79.69 30.1303 79.69 36.9428ZM74.6742 36.9428C74.6742 40.9637 71.4488 44.2179 67.464 44.2179C63.4783 44.2179 60.253 40.9637 60.253 36.9428C60.253 32.922 63.4783 29.6678 67.464 29.6678C71.4488 29.6678 74.6742 32.922 74.6742 36.9428Z" fill="#888888"/>
<path fill-rule="evenodd" clip-rule="evenodd" d="M54.1054 36.9431V36.8409C54.1223 36.8068 54.1223 36.7557 54.1223 36.7216V19.2241C54.1223 17.8781 53.0246 16.7707 51.6906 16.7707C51.3708 16.7693 51.054 16.8319 50.7584 16.9547C50.4627 17.0775 50.1941 17.2582 49.9681 17.4863C49.742 17.7144 49.5629 17.9853 49.4412 18.2836C49.3195 18.5819 49.2575 18.9015 49.2588 19.2241V27.0954C47.1986 25.545 44.6486 24.6079 41.8791 24.6079C35.1243 24.6079 29.6528 30.1281 29.6528 36.9431C29.6528 43.7581 35.1243 49.2783 41.8791 49.2783C48.6339 49.2783 54.1054 43.7581 54.1054 36.9431ZM49.0899 36.9431C49.0899 40.9609 45.8615 44.2181 41.8791 44.2181C37.8967 44.2181 34.6682 40.9609 34.6682 36.9431C34.6682 32.9252 37.8967 29.6681 41.8791 29.6681C45.8615 29.6681 49.0899 32.9252 49.0899 36.9431Z" fill="#888888"/>
<path fill-rule="evenodd" clip-rule="evenodd" d="M28.7583 36.9089C28.7583 43.7214 23.2843 49.244 16.5319 49.244C9.77954 49.244 4.30566 43.7214 4.30566 36.9089C4.30566 30.0963 9.77954 24.5737 16.5319 24.5737C23.2843 24.5737 28.7583 30.0963 28.7583 36.9089ZM23.6245 36.96C23.6245 40.9778 20.3962 44.235 16.4138 44.235C12.4313 44.235 9.20296 40.9778 9.20296 36.96C9.20296 32.9421 12.4313 29.685 16.4138 29.685C20.3962 29.685 23.6245 32.9421 23.6245 36.96Z" fill="#9C5789"/>
</g>
</svg>
