<svg width="34" height="34" viewBox="0 0 34 34" fill="none" xmlns="http://www.w3.org/2000/svg">
<path d="M33.1674 15.0836H23.1088L31.8196 10.0565L30.0921 7.06455L21.3802 12.0915L26.4084 3.38505L23.4158 1.65804L18.3865 10.3623V0.310547H14.9294V10.3634L9.90009 1.65804L6.90626 3.38505L11.9345 12.0893L3.22478 7.06455L1.49627 10.0565L10.2071 15.0836H0.148438V18.5386H10.206L1.49627 23.5657L3.22368 26.5576L11.9356 21.5307L6.90626 30.2371L9.89899 31.9642L14.9294 23.2587V33.3105H18.3865V23.0431L23.5081 31.9092L26.315 30.2899L21.1921 21.4218L30.0899 26.5565L31.8185 23.5646L23.1088 18.5375H33.1663V15.0836H33.1674ZM16.6579 21.5075C16.0408 21.5076 15.4297 21.3862 14.8595 21.1502C14.2894 20.9141 13.7713 20.5681 13.3349 20.1319C12.8985 19.6957 12.5523 19.1778 12.316 18.6078C12.0798 18.0378 11.9582 17.427 11.9581 16.8101C11.958 16.193 12.0795 15.582 12.3156 15.012C12.5518 14.4421 12.8978 13.924 13.3342 13.4878C13.7704 13.0515 14.2883 12.7054 14.8586 12.4692C15.4287 12.233 16.0397 12.1115 16.6568 12.1113C17.9031 12.1112 19.0984 12.606 19.9798 13.487C20.8612 14.3681 21.3565 15.563 21.3566 16.8089C21.3567 18.0548 20.8618 19.25 19.9806 20.1311C19.0994 21.0124 17.9042 21.5074 16.6579 21.5075Z" fill="url(#paint0_linear_708_49)"/>
<defs>
<linearGradient id="paint0_linear_708_49" x1="16.6579" y1="0.310547" x2="16.6579" y2="33.3105" gradientUnits="userSpaceOnUse">
<stop stop-color="#3171DE"/>
<stop offset="1" stop-color="#704AF2"/>
</linearGradient>
</defs>
</svg>
