<svg width="15" height="15" viewBox="0 0 15 15" fill="none" xmlns="http://www.w3.org/2000/svg">
<g clip-path="url(#clip0_377_606)">
<path d="M14.7222 7.55007C14.7222 3.62885 11.5457 0.450073 7.62723 0.450073C3.70876 0.450073 0.532227 3.62885 0.532227 7.55007C0.532227 11.0938 3.12675 14.0312 6.51863 14.5638V9.60242H4.71717V7.55007H6.51863V5.98586C6.51863 4.20642 7.57789 3.22351 9.19852 3.22351C9.97454 3.22351 10.7867 3.36218 10.7867 3.36218V5.10945H9.89208C9.01075 5.10945 8.73582 5.65679 8.73582 6.21882V7.55007H10.7036L10.389 9.60242H8.73582V14.5638C12.1277 14.0312 14.7222 11.0938 14.7222 7.55007Z" fill="#282938"/>
</g>
<defs>
<clipPath id="clip0_377_606">
<rect width="14.19" height="14.2" fill="white" transform="translate(0.532227 0.450073)"/>
</clipPath>
</defs>
</svg>
