<svg width="15" height="15" viewBox="0 0 15 15" fill="none" xmlns="http://www.w3.org/2000/svg">
<g clip-path="url(#clip0_377_615)">
<path d="M13.3242 0.450073H1.23219C0.652951 0.450073 0.18457 0.895405 0.18457 1.446V13.2702C0.18457 13.8208 0.652951 14.2689 1.23219 14.2689H13.3242C13.9034 14.2689 14.3746 13.8208 14.3746 13.2729V1.446C14.3746 0.895405 13.9034 0.450073 13.3242 0.450073ZM4.39445 12.2257H2.28813V5.62942H4.39445V12.2257ZM3.34129 4.73066C2.66505 4.73066 2.11907 4.19896 2.11907 3.54311C2.11907 2.88725 2.66505 2.35555 3.34129 2.35555C4.01476 2.35555 4.56074 2.88725 4.56074 3.54311C4.56074 4.19626 4.01476 4.73066 3.34129 4.73066ZM12.2766 12.2257H10.173V9.01934C10.173 8.25553 10.1591 7.2704 9.07826 7.2704C7.98353 7.2704 7.81724 8.10439 7.81724 8.96536V12.2257H5.71645V5.62942H7.73409V6.53088H7.76181C8.04173 6.01268 8.72906 5.46478 9.75174 5.46478C11.883 5.46478 12.2766 6.83047 12.2766 8.6064V12.2257Z" fill="#282938"/>
</g>
<defs>
<clipPath id="clip0_377_615">
<rect width="14.19" height="13.8188" fill="white" transform="translate(0.18457 0.450073)"/>
</clipPath>
</defs>
</svg>
