<svg width="15" height="15" viewBox="0 0 15 15" fill="none" xmlns="http://www.w3.org/2000/svg">
<g clip-path="url(#clip0_377_608)">
<path d="M4.88102 12.9731C10.2344 12.9731 13.1633 8.65285 13.1633 4.90748C13.1633 4.78602 13.1606 4.66187 13.155 4.54041C13.7248 4.13915 14.2165 3.64213 14.607 3.07271C14.0764 3.30262 13.513 3.45277 12.9361 3.51804C13.5435 3.16346 13.9983 2.60642 14.2162 1.9502C13.6448 2.28 13.0198 2.51265 12.3682 2.63817C11.9291 2.18385 11.3486 1.88303 10.7164 1.78224C10.0842 1.68144 9.43544 1.78627 8.87053 2.08052C8.30562 2.37477 7.85598 2.84205 7.59113 3.41012C7.32628 3.97819 7.26096 4.61541 7.40529 5.22326C6.24819 5.16671 5.11621 4.87399 4.08273 4.36407C3.04925 3.85416 2.13735 3.13843 1.40613 2.26328C1.03449 2.88727 0.920771 3.62566 1.08808 4.32837C1.25539 5.03108 1.69117 5.64539 2.30687 6.04645C1.84464 6.03215 1.39254 5.91096 0.987918 5.69288V5.72797C0.987504 6.3828 1.21997 7.01756 1.64579 7.52436C2.07162 8.03115 2.66452 8.3787 3.32372 8.50792C2.89554 8.622 2.44615 8.63863 2.01032 8.5565C2.19633 9.11966 2.55825 9.61221 3.04555 9.96542C3.53286 10.3186 4.12124 10.5149 4.72859 10.5268C3.6975 11.3155 2.4238 11.7433 1.11263 11.7413C0.880111 11.741 0.647816 11.7271 0.416992 11.6997C1.74899 12.5319 3.29847 12.9739 4.88102 12.9731Z" fill="#282938"/>
</g>
<defs>
<clipPath id="clip0_377_608">
<rect width="14.19" height="13.8188" fill="white" transform="translate(0.416992 0.450073)"/>
</clipPath>
</defs>
</svg>
