<svg width="15" height="15" viewBox="0 0 15 15" fill="none" xmlns="http://www.w3.org/2000/svg">
<g clip-path="url(#clip0_377_610)">
<path d="M7.39383 1.72863C9.28952 1.72863 9.51401 1.73695 10.2595 1.77023C10.9524 1.80074 11.3266 1.91722 11.576 2.01429C11.9058 2.14187 12.1442 2.29718 12.3908 2.54402C12.6402 2.79363 12.7927 3.02937 12.9202 3.35941C13.0172 3.60902 13.1336 3.98621 13.1641 4.67679C13.1973 5.42562 13.2056 5.65027 13.2056 7.54453C13.2056 9.44156 13.1973 9.66621 13.1641 10.4123C13.1336 11.1056 13.0172 11.48 12.9202 11.7296C12.7927 12.0597 12.6375 12.2982 12.3908 12.545C12.1414 12.7946 11.9058 12.9472 11.576 13.0748C11.3266 13.1718 10.9496 13.2883 10.2595 13.3188C9.51124 13.3521 9.28675 13.3604 7.39383 13.3604C5.49813 13.3604 5.27364 13.3521 4.52811 13.3188C3.83524 13.2883 3.46109 13.1718 3.21166 13.0748C2.88185 12.9472 2.6435 12.7919 2.39684 12.545C2.14741 12.2954 1.99498 12.0597 1.86749 11.7296C1.77049 11.48 1.65408 11.1028 1.6236 10.4123C1.59034 9.66343 1.58203 9.43878 1.58203 7.54453C1.58203 5.6475 1.59034 5.42285 1.6236 4.67679C1.65408 3.98343 1.77049 3.60902 1.86749 3.35941C1.99498 3.02937 2.15018 2.79085 2.39684 2.54402C2.64628 2.29441 2.88185 2.14187 3.21166 2.01429C3.46109 1.91722 3.83801 1.80074 4.52811 1.77023C5.27364 1.73695 5.49813 1.72863 7.39383 1.72863ZM7.39383 0.450073C5.46765 0.450073 5.22653 0.458394 4.46991 0.491675C3.71607 0.524956 3.1978 0.646987 2.74882 0.821714C2.28044 1.00476 1.88412 1.24605 1.49057 1.64265C1.09424 2.03648 0.853125 2.43308 0.670207 2.89902C0.495604 3.35109 0.373658 3.86695 0.3404 4.62132C0.307143 5.38125 0.298828 5.62253 0.298828 7.55007C0.298828 9.47761 0.307143 9.7189 0.3404 10.4761C0.373658 11.2304 0.495604 11.7491 0.670207 12.1984C0.853125 12.6671 1.09424 13.0637 1.49057 13.4575C1.88412 13.8513 2.28044 14.0954 2.74605 14.2757C3.1978 14.4504 3.7133 14.5724 4.46714 14.6057C5.22376 14.639 5.46488 14.6473 7.39106 14.6473C9.31724 14.6473 9.55836 14.639 10.315 14.6057C11.0688 14.5724 11.5871 14.4504 12.0361 14.2757C12.5017 14.0954 12.898 13.8513 13.2915 13.4575C13.6851 13.0637 13.929 12.6671 14.1091 12.2011C14.2837 11.7491 14.4057 11.2332 14.4389 10.4788C14.4722 9.72168 14.4805 9.48039 14.4805 7.55285C14.4805 5.62531 14.4722 5.38402 14.4389 4.62687C14.4057 3.8725 14.2837 3.35386 14.1091 2.90457C13.9345 2.43308 13.6934 2.03648 13.2971 1.64265C12.9035 1.24882 12.5072 1.00476 12.0416 0.824487C11.5899 0.649761 11.0744 0.527729 10.3205 0.494448C9.56113 0.458394 9.32001 0.450073 7.39383 0.450073Z" fill="#282938"/>
<path d="M7.39353 3.90302C5.38143 3.90302 3.74902 5.53657 3.74902 7.55009C3.74902 9.5636 5.38143 11.1972 7.39353 11.1972C9.40562 11.1972 11.038 9.5636 11.038 7.55009C11.038 5.53657 9.40562 3.90302 7.39353 3.90302ZM7.39353 9.91583C6.08816 9.91583 5.02945 8.85637 5.02945 7.55009C5.02945 6.2438 6.08816 5.18434 7.39353 5.18434C8.69889 5.18434 9.7576 6.2438 9.7576 7.55009C9.7576 8.85637 8.69889 9.91583 7.39353 9.91583Z" fill="#282938"/>
<path d="M12.0337 3.75861C12.0337 4.2301 11.6513 4.61006 11.1829 4.61006C10.7117 4.61006 10.332 4.22732 10.332 3.75861C10.332 3.28713 10.7145 2.90717 11.1829 2.90717C11.6513 2.90717 12.0337 3.2899 12.0337 3.75861Z" fill="#282938"/>
</g>
<defs>
<clipPath id="clip0_377_610">
<rect width="14.19" height="14.2" fill="white" transform="translate(0.299805 0.450073)"/>
</clipPath>
</defs>
</svg>
