<svg width="47" height="47" viewBox="0 0 47 47" fill="none" xmlns="http://www.w3.org/2000/svg">
<path d="M37.2075 44.5517C36.4046 44.5517 35.7388 43.8858 35.7388 43.0829V21.5413C35.7388 20.7383 36.4046 20.0725 37.2075 20.0725C38.0104 20.0725 38.6763 20.7383 38.6763 21.5413V43.0829C38.6763 43.8858 38.0104 44.5517 37.2075 44.5517Z" fill="#F3BC4C"/>
<path d="M37.2075 15.1767C36.4046 15.1767 35.7388 14.5108 35.7388 13.7079V3.91626C35.7388 3.11334 36.4046 2.44751 37.2075 2.44751C38.0104 2.44751 38.6763 3.11334 38.6763 3.91626V13.7079C38.6763 14.5108 38.0104 15.1767 37.2075 15.1767Z" fill="#F3BC4C"/>
<path d="M23.5 44.5517C22.6971 44.5517 22.0312 43.8858 22.0312 43.0829V33.2913C22.0312 32.4883 22.6971 31.8225 23.5 31.8225C24.3029 31.8225 24.9688 32.4883 24.9688 33.2913V43.0829C24.9688 43.8858 24.3029 44.5517 23.5 44.5517Z" fill="#F3BC4C"/>
<path d="M23.5 26.9267C22.6971 26.9267 22.0312 26.2608 22.0312 25.4579V3.91626C22.0312 3.11334 22.6971 2.44751 23.5 2.44751C24.3029 2.44751 24.9688 3.11334 24.9688 3.91626V25.4579C24.9688 26.2608 24.3029 26.9267 23.5 26.9267Z" fill="#F3BC4C"/>
<path d="M9.79248 44.5517C8.98956 44.5517 8.32373 43.8858 8.32373 43.0829V21.5413C8.32373 20.7383 8.98956 20.0725 9.79248 20.0725C10.5954 20.0725 11.2612 20.7383 11.2612 21.5413V43.0829C11.2612 43.8858 10.5954 44.5517 9.79248 44.5517Z" fill="#F3BC4C"/>
<path d="M9.79248 15.1767C8.98956 15.1767 8.32373 14.5108 8.32373 13.7079V3.91626C8.32373 3.11334 8.98956 2.44751 9.79248 2.44751C10.5954 2.44751 11.2612 3.11334 11.2612 3.91626V13.7079C11.2612 14.5108 10.5954 15.1767 9.79248 15.1767Z" fill="#F3BC4C"/>
<path d="M13.7083 23.01H5.875C5.07208 23.01 4.40625 22.3442 4.40625 21.5413C4.40625 20.7383 5.07208 20.0725 5.875 20.0725H13.7083C14.5113 20.0725 15.1771 20.7383 15.1771 21.5413C15.1771 22.3442 14.5113 23.01 13.7083 23.01Z" fill="#F3BC4C"/>
<path d="M41.1258 23.01H33.2925C32.4896 23.01 31.8237 22.3442 31.8237 21.5413C31.8237 20.7383 32.4896 20.0725 33.2925 20.0725H41.1258C41.9287 20.0725 42.5946 20.7383 42.5946 21.5413C42.5946 22.3442 41.9287 23.01 41.1258 23.01Z" fill="#F3BC4C"/>
<path d="M27.4159 26.9275H19.5825C18.7796 26.9275 18.1138 26.2617 18.1138 25.4587C18.1138 24.6558 18.7796 23.99 19.5825 23.99H27.4159C28.2188 23.99 28.8846 24.6558 28.8846 25.4587C28.8846 26.2617 28.2188 26.9275 27.4159 26.9275Z" fill="#F3BC4C"/>
</svg>
