<svg width="50" height="50" viewBox="0 0 50 50" fill="none" xmlns="http://www.w3.org/2000/svg">
<path d="M35.3545 25.5208V34.8958C35.3545 42.7083 32.2295 45.8333 24.417 45.8333H15.042C7.22949 45.8333 4.10449 42.7083 4.10449 34.8958V25.5208C4.10449 17.7083 7.22949 14.5833 15.042 14.5833H24.417C32.2295 14.5833 35.3545 17.7083 35.3545 25.5208Z" stroke="#F3BC4C" stroke-width="3.125" stroke-linecap="round" stroke-linejoin="round"/>
<path d="M45.7707 15.6251C45.7707 21.6042 41.2082 26.5001 35.354 27.0209V25.5209C35.354 17.7084 32.229 14.5834 24.4165 14.5834H22.9165C23.4373 8.72925 28.3332 4.16675 34.3123 4.16675C40.1248 4.16675 44.9165 8.47925 45.6457 14.1042C45.729 14.5834 45.7707 15.1042 45.7707 15.6251Z" stroke="#F3BC4C" stroke-width="3.125" stroke-linecap="round" stroke-linejoin="round"/>
</svg>
