<svg width="23" height="24" viewBox="0 0 23 24" fill="none" xmlns="http://www.w3.org/2000/svg">
<circle cx="11.0899" cy="11.9244" r="11.088" fill="white"/>
<path d="M16.0376 9.09645C16.2674 8.97588 16.8178 8.61767 17.0772 7.84881C17.0772 7.84881 16.452 8.30805 15.6011 8.36216L15.5856 8.37084C15.3627 8.12298 15.0912 7.9251 14.7887 7.78987C14.4861 7.65463 14.1591 7.58501 13.8286 7.58545C12.5121 7.58545 11.445 8.6696 11.445 10.0069C11.445 10.2098 11.4698 10.4069 11.5163 10.5953L11.5048 10.5777C11.5048 10.5777 8.95175 10.7263 6.54482 8.05154C6.54482 8.05154 5.48068 9.88869 7.30269 11.2936C6.9037 11.3611 6.19909 10.9964 6.19909 10.9964C6.19909 10.9964 6.23888 12.9279 8.12713 13.4008C7.82136 13.482 7.24942 13.5087 7.06332 13.4279C7.06332 13.4279 7.34247 14.9001 9.27084 15.157C8.7788 15.4407 7.8613 16.3051 5.78662 16.1429C5.78662 16.1429 7.27638 17.3856 10.0424 17.2102C12.8083 17.0349 14.8164 15.1433 15.6276 13.1441C16.4387 11.145 16.213 10.0068 16.213 10.0068C16.213 10.0068 16.8908 9.64537 17.3567 8.78099C17.1415 8.84645 16.3433 9.04451 16.0463 9.11782C16.0433 9.11074 16.0404 9.10362 16.0376 9.09645Z" fill="black"/>
</svg>
